<svg xmlns="http://www.w3.org/2000/svg" xmlns:xlink="http://www.w3.org/1999/xlink" width="500" zoomAndPan="magnify" viewBox="0 0 375 374.999991" height="500" preserveAspectRatio="xMidYMid meet" version="1.0"><defs><g/><clipPath id="eff8d12a08"><path d="M 129.140625 110.195312 L 246 110.195312 L 246 205.445312 L 129.140625 205.445312 Z M 129.140625 110.195312 " clip-rule="nonzero"/></clipPath><clipPath id="cd2654ec34"><path d="M 168.144531 139.089844 L 237.894531 139.089844 L 237.894531 169.839844 L 168.144531 169.839844 Z M 168.144531 139.089844 " clip-rule="nonzero"/></clipPath></defs><g clip-path="url(#eff8d12a08)"><path fill="#fab713" d="M 233.875 184.226562 L 233.824219 205.4375 L 216.515625 185.851562 L 179.878906 185.851562 C 168.980469 185.851562 160.144531 177.015625 160.144531 166.113281 L 160.144531 143.152344 C 160.144531 132.253906 168.976562 123.417969 179.878906 123.417969 L 226.058594 123.417969 C 236.957031 123.417969 245.792969 132.253906 245.792969 143.152344 L 245.792969 166.113281 C 245.792969 174.238281 240.878906 181.199219 233.875 184.226562 Z M 153.785156 143.09375 L 153.785156 159.539062 L 139.058594 175.992188 L 139.03125 158.164062 C 133.214844 155.628906 129.140625 149.839844 129.140625 143.09375 L 129.140625 126.664062 C 129.140625 117.578125 136.5 110.21875 145.589844 110.21875 L 184.65625 110.21875 C 190.007812 110.21875 194.722656 112.816406 197.722656 116.777344 L 180.097656 116.777344 C 165.5625 116.777344 153.785156 128.554688 153.785156 143.09375 Z M 153.785156 143.09375 " fill-opacity="1" fill-rule="evenodd"/></g><g clip-path="url(#cd2654ec34)"><path fill="#000000" d="M 237.859375 154.5625 C 237.859375 154.644531 237.796875 154.71875 237.738281 154.773438 C 237.566406 154.9375 236.417969 155.136719 235.945312 155.191406 C 235.90625 155.199219 235.867188 155.203125 235.828125 155.210938 C 235.824219 155.210938 235.824219 155.210938 235.824219 155.210938 C 234.820312 155.359375 234.160156 155.871094 233.4375 156.898438 C 232.828125 157.71875 232.375 158.636719 231.972656 159.574219 C 231.597656 160.433594 231.28125 161.34375 230.640625 162.050781 C 230.144531 162.574219 229.441406 162.957031 228.71875 163.035156 C 227.617188 163.125 226.492188 162.574219 225.808594 161.71875 C 224.871094 160.6875 224.269531 158.089844 223.964844 157.414062 C 223.757812 156.921875 223.535156 156.433594 223.21875 156 C 223.144531 155.917969 223.0625 155.84375 222.976562 155.769531 C 222.976562 155.769531 222.972656 155.765625 222.96875 155.765625 C 222.917969 155.726562 222.824219 155.675781 222.753906 155.640625 C 222.726562 155.632812 222.703125 155.628906 222.683594 155.621094 L 222.65625 155.621094 C 222.640625 155.628906 222.625 155.640625 222.609375 155.648438 C 222.570312 155.6875 222.535156 155.726562 222.5 155.769531 C 222.472656 155.8125 222.4375 155.871094 222.410156 155.921875 C 222.046875 156.621094 221.917969 157.082031 221.875 157.972656 C 221.792969 159.449219 221.84375 160.925781 221.789062 162.40625 C 221.691406 164.808594 221.617188 167.835938 219.320312 169.234375 C 218.660156 169.59375 217.878906 169.566406 217.222656 169.214844 C 215.804688 168.507812 215.089844 166.355469 214.667969 164.914062 C 214.257812 163.234375 213.90625 161.539062 213.4375 159.871094 C 212.984375 158.210938 212.511719 156.785156 211.695312 155.902344 C 211.390625 155.675781 211.277344 155.589844 210.632812 155.457031 C 210.539062 155.453125 210.414062 155.457031 210.347656 155.457031 C 209.996094 155.535156 210.1875 155.496094 209.742188 155.707031 C 209.375 155.941406 209.632812 155.738281 209.304688 156.054688 C 209.296875 156.0625 209.289062 156.070312 209.28125 156.074219 C 209.257812 156.113281 209.230469 156.148438 209.210938 156.191406 C 209.195312 156.222656 209.179688 156.246094 209.171875 156.265625 C 209.148438 156.328125 209.121094 156.390625 209.101562 156.453125 C 208.742188 157.757812 208.609375 159.113281 208.363281 160.441406 C 208.203125 161.179688 208.085938 161.984375 207.609375 162.597656 C 207.113281 163.226562 206.285156 163.617188 205.476562 163.554688 C 205.269531 163.539062 205.074219 163.480469 204.886719 163.398438 L 204.882812 163.394531 C 204.871094 163.390625 204.855469 163.382812 204.839844 163.378906 C 204.835938 163.375 204.835938 163.375 204.832031 163.375 C 204.832031 163.375 204.832031 163.371094 204.828125 163.371094 C 204.816406 163.367188 204.804688 163.363281 204.796875 163.359375 C 204.796875 163.355469 204.792969 163.355469 204.792969 163.355469 C 204.789062 163.355469 204.785156 163.351562 204.785156 163.351562 L 204.78125 163.351562 C 204.339844 163.15625 203.945312 162.855469 203.609375 162.511719 C 203.046875 161.886719 202.722656 161.097656 202.429688 160.316406 C 201.890625 158.949219 201.601562 157.234375 201.085938 156.300781 C 200.707031 155.652344 200.542969 155.476562 199.875 155.289062 C 199.851562 155.289062 199.828125 155.289062 199.800781 155.292969 C 199.773438 155.289062 199.746094 155.292969 199.722656 155.292969 C 199.65625 155.308594 199.59375 155.324219 199.53125 155.347656 C 199.472656 155.378906 199.402344 155.425781 199.367188 155.445312 C 199.332031 155.476562 199.296875 155.503906 199.261719 155.535156 C 198.890625 155.964844 198.992188 155.742188 198.796875 156.371094 C 198.578125 157.324219 198.578125 157.554688 198.472656 158.5 C 198.253906 160.488281 198.058594 162.484375 197.691406 164.453125 C 197.390625 165.859375 197.070312 167.332031 196.277344 168.554688 C 196.097656 168.816406 195.855469 169.023438 195.621094 169.234375 C 195.410156 169.414062 195.195312 169.605469 194.929688 169.703125 C 194.199219 170.046875 193.445312 169.703125 192.828125 169.28125 C 192.191406 168.824219 191.925781 168.03125 191.539062 167.378906 C 190.597656 165.457031 190.300781 163.300781 190.0625 161.195312 C 189.8125 159.28125 189.789062 157.589844 188.820312 156.148438 C 188.367188 155.476562 187.316406 155.113281 186.878906 155.316406 C 186.449219 155.582031 186.335938 155.839844 186.113281 156.738281 C 185.910156 157.734375 185.722656 158.734375 185.429688 159.710938 C 185.199219 160.425781 184.9375 161.152344 184.5 161.765625 C 184.121094 162.234375 183.578125 162.597656 182.988281 162.726562 C 182.539062 162.832031 182.117188 162.582031 181.746094 162.355469 C 180.582031 161.570312 180.410156 160.011719 180.132812 158.742188 C 179.875 157.269531 179.324219 155.851562 178.863281 155.5 C 178.539062 155.289062 178.703125 155.335938 178.378906 155.265625 C 178.363281 155.265625 178.335938 155.265625 178.308594 155.269531 C 178.296875 155.273438 178.265625 155.28125 178.230469 155.292969 C 178.21875 155.300781 178.195312 155.3125 178.164062 155.328125 C 177.769531 155.546875 177.707031 155.675781 177.488281 155.9375 C 177.128906 156.488281 176.867188 157.09375 176.441406 157.597656 C 176.101562 158.023438 175.628906 158.335938 175.125 158.53125 C 174.035156 159.070312 173.03125 158.113281 172.273438 157.425781 C 171.386719 156.523438 170.8125 155.90625 169.808594 155.398438 C 169.777344 155.386719 169.75 155.375 169.722656 155.363281 C 169.679688 155.347656 169.644531 155.332031 169.601562 155.316406 C 169.40625 155.246094 169.207031 155.1875 169.003906 155.132812 C 168.804688 155.0625 168.570312 155.070312 168.394531 154.9375 C 168.277344 154.859375 168.210938 154.707031 168.21875 154.566406 C 168.210938 154.421875 168.277344 154.269531 168.394531 154.191406 C 168.570312 154.0625 168.804688 154.066406 169.003906 153.996094 C 169.203125 153.941406 169.40625 153.882812 169.601562 153.8125 C 169.644531 153.796875 169.679688 153.78125 169.722656 153.765625 C 169.75 153.753906 169.777344 153.742188 169.808594 153.730469 C 170.8125 153.222656 171.386719 152.605469 172.273438 151.703125 C 173.03125 151.015625 174.035156 150.058594 175.125 150.597656 C 175.628906 150.796875 176.101562 151.105469 176.441406 151.53125 C 176.867188 152.035156 177.128906 152.640625 177.488281 153.191406 C 177.707031 153.453125 177.769531 153.582031 178.164062 153.800781 C 178.195312 153.816406 178.21875 153.828125 178.230469 153.835938 C 178.265625 153.847656 178.296875 153.855469 178.308594 153.859375 C 178.335938 153.863281 178.363281 153.863281 178.378906 153.863281 C 178.703125 153.792969 178.539062 153.839844 178.863281 153.628906 C 179.324219 153.277344 179.875 151.859375 180.132812 150.386719 C 180.410156 149.117188 180.582031 147.558594 181.746094 146.773438 C 182.117188 146.546875 182.539062 146.296875 182.988281 146.402344 C 183.578125 146.53125 184.121094 146.894531 184.5 147.363281 C 184.9375 147.976562 185.199219 148.703125 185.429688 149.417969 C 185.722656 150.394531 185.910156 151.394531 186.113281 152.390625 C 186.335938 153.289062 186.449219 153.546875 186.878906 153.8125 C 187.316406 154.015625 188.367188 153.652344 188.820312 152.980469 C 189.789062 151.542969 189.8125 149.847656 190.0625 147.933594 C 190.300781 145.828125 190.597656 143.671875 191.539062 141.75 C 191.925781 141.097656 192.191406 140.304688 192.828125 139.847656 C 193.445312 139.425781 194.199219 139.085938 194.929688 139.425781 C 195.195312 139.523438 195.410156 139.714844 195.621094 139.894531 C 195.855469 140.105469 196.097656 140.3125 196.277344 140.574219 C 197.066406 141.796875 197.390625 143.269531 197.691406 144.675781 C 198.058594 146.644531 198.253906 148.640625 198.472656 150.628906 C 198.578125 151.574219 198.578125 151.804688 198.796875 152.757812 C 198.992188 153.386719 198.890625 153.164062 199.261719 153.59375 C 199.296875 153.625 199.332031 153.652344 199.367188 153.683594 C 199.402344 153.703125 199.472656 153.75 199.53125 153.78125 C 199.59375 153.804688 199.65625 153.824219 199.722656 153.835938 C 199.746094 153.835938 199.773438 153.839844 199.800781 153.835938 C 199.828125 153.839844 199.851562 153.839844 199.875 153.835938 C 200.542969 153.652344 200.707031 153.476562 201.085938 152.828125 C 201.601562 151.894531 201.890625 150.179688 202.429688 148.808594 C 202.722656 148.03125 203.046875 147.242188 203.609375 146.617188 C 203.945312 146.273438 204.339844 145.972656 204.78125 145.777344 C 204.78125 145.777344 204.785156 145.777344 204.792969 145.773438 C 204.792969 145.773438 204.792969 145.773438 204.796875 145.769531 C 204.804688 145.769531 204.816406 145.761719 204.828125 145.757812 C 204.832031 145.753906 204.835938 145.753906 204.839844 145.753906 C 204.847656 145.75 204.859375 145.746094 204.867188 145.742188 C 204.875 145.738281 204.878906 145.738281 204.882812 145.734375 C 204.890625 145.730469 204.898438 145.726562 204.902344 145.726562 C 205.085938 145.644531 205.277344 145.589844 205.476562 145.574219 C 206.285156 145.511719 207.109375 145.902344 207.609375 146.53125 C 208.085938 147.144531 208.203125 147.949219 208.363281 148.6875 C 208.609375 150.019531 208.742188 151.371094 209.101562 152.675781 C 209.121094 152.738281 209.148438 152.800781 209.171875 152.863281 C 209.179688 152.882812 209.191406 152.90625 209.210938 152.941406 C 209.230469 152.980469 209.257812 153.015625 209.28125 153.054688 C 209.289062 153.0625 209.292969 153.066406 209.300781 153.078125 C 209.628906 153.386719 209.375 153.1875 209.742188 153.421875 C 210.1875 153.632812 209.996094 153.59375 210.347656 153.671875 C 210.414062 153.671875 210.539062 153.675781 210.632812 153.671875 C 211.277344 153.539062 211.390625 153.453125 211.691406 153.226562 C 212.511719 152.34375 212.984375 150.917969 213.4375 149.257812 C 213.90625 147.589844 214.257812 145.894531 214.664062 144.214844 C 215.089844 142.773438 215.804688 140.621094 217.222656 139.914062 C 217.878906 139.5625 218.660156 139.535156 219.320312 139.894531 C 221.617188 141.292969 221.691406 144.320312 221.789062 146.726562 C 221.84375 148.203125 221.792969 149.683594 221.875 151.15625 C 221.917969 152.046875 222.046875 152.507812 222.410156 153.207031 C 222.4375 153.257812 222.472656 153.320312 222.5 153.359375 C 222.535156 153.402344 222.570312 153.441406 222.609375 153.480469 C 222.625 153.488281 222.640625 153.496094 222.652344 153.507812 L 222.683594 153.507812 C 222.703125 153.503906 222.726562 153.496094 222.753906 153.488281 C 222.820312 153.453125 222.917969 153.402344 222.96875 153.363281 C 222.972656 153.363281 222.976562 153.363281 222.976562 153.359375 C 223.0625 153.289062 223.144531 153.210938 223.21875 153.128906 C 223.535156 152.695312 223.757812 152.207031 223.964844 151.714844 C 224.269531 151.039062 224.871094 148.441406 225.808594 147.410156 C 226.492188 146.558594 227.617188 146.003906 228.71875 146.09375 C 229.441406 146.171875 230.144531 146.554688 230.640625 147.078125 C 231.28125 147.785156 231.597656 148.695312 231.972656 149.554688 C 232.375 150.492188 232.828125 151.414062 233.4375 152.230469 C 234.160156 153.257812 234.816406 153.765625 235.816406 153.917969 C 235.859375 153.925781 235.902344 153.933594 235.945312 153.9375 C 236.324219 153.976562 237.59375 154.210938 237.738281 154.355469 C 237.796875 154.410156 237.859375 154.484375 237.859375 154.5625 Z M 237.859375 154.5625 " fill-opacity="1" fill-rule="nonzero"/></g><g fill="#ffffff" fill-opacity="1"><g transform="translate(103.624515, 236.841603)"><g><path d="M 9.609375 6.4375 L 1.4375 6.4375 L 1.4375 -18.875 L 8.796875 -18.875 L 9.09375 -17.296875 C 9.832031 -18.109375 10.648438 -18.675781 11.546875 -19 C 12.441406 -19.332031 13.320312 -19.5 14.1875 -19.5 C 15.457031 -19.5 16.632812 -19.253906 17.71875 -18.765625 C 18.800781 -18.273438 19.75 -17.582031 20.5625 -16.6875 C 21.375 -15.789062 22.007812 -14.722656 22.46875 -13.484375 C 22.925781 -12.253906 23.15625 -10.898438 23.15625 -9.421875 C 23.15625 -7.972656 22.929688 -6.632812 22.484375 -5.40625 C 22.046875 -4.175781 21.421875 -3.109375 20.609375 -2.203125 C 19.804688 -1.296875 18.863281 -0.585938 17.78125 -0.078125 C 16.707031 0.421875 15.53125 0.671875 14.25 0.671875 C 13.332031 0.671875 12.460938 0.492188 11.640625 0.140625 C 10.816406 -0.203125 10.109375 -0.648438 9.515625 -1.203125 L 9.609375 0.5 Z M 12.328125 -6.328125 C 12.828125 -6.328125 13.285156 -6.441406 13.703125 -6.671875 C 14.128906 -6.898438 14.46875 -7.242188 14.71875 -7.703125 C 14.96875 -8.160156 15.09375 -8.738281 15.09375 -9.4375 C 15.09375 -10.445312 14.820312 -11.210938 14.28125 -11.734375 C 13.75 -12.253906 13.09375 -12.515625 12.3125 -12.515625 C 11.800781 -12.515625 11.332031 -12.378906 10.90625 -12.109375 C 10.488281 -11.835938 10.160156 -11.46875 9.921875 -11 C 9.679688 -10.539062 9.5625 -10.019531 9.5625 -9.4375 C 9.5625 -8.800781 9.6875 -8.25 9.9375 -7.78125 C 10.1875 -7.3125 10.523438 -6.953125 10.953125 -6.703125 C 11.378906 -6.453125 11.835938 -6.328125 12.328125 -6.328125 Z M 12.328125 -6.328125 "/></g></g></g><g fill="#ffffff" fill-opacity="1"><g transform="translate(127.494981, 236.841603)"><g><path d="M 11.484375 0.671875 C 9.890625 0.671875 8.429688 0.421875 7.109375 -0.078125 C 5.785156 -0.578125 4.644531 -1.273438 3.6875 -2.171875 C 2.738281 -3.066406 2.003906 -4.128906 1.484375 -5.359375 C 0.960938 -6.585938 0.703125 -7.941406 0.703125 -9.421875 C 0.703125 -10.890625 0.960938 -12.238281 1.484375 -13.46875 C 2.003906 -14.695312 2.738281 -15.765625 3.6875 -16.671875 C 4.644531 -17.578125 5.78125 -18.273438 7.09375 -18.765625 C 8.414062 -19.265625 9.875 -19.515625 11.46875 -19.515625 C 13.09375 -19.515625 14.570312 -19.265625 15.90625 -18.765625 C 17.25 -18.273438 18.398438 -17.578125 19.359375 -16.671875 C 20.328125 -15.773438 21.070312 -14.707031 21.59375 -13.46875 C 22.113281 -12.238281 22.375 -10.890625 22.375 -9.421875 C 22.375 -7.941406 22.113281 -6.582031 21.59375 -5.34375 C 21.070312 -4.113281 20.332031 -3.050781 19.375 -2.15625 C 18.414062 -1.257812 17.269531 -0.5625 15.9375 -0.0625 C 14.601562 0.425781 13.117188 0.671875 11.484375 0.671875 Z M 11.5625 -6.359375 C 12.382812 -6.359375 13.046875 -6.632812 13.546875 -7.1875 C 14.054688 -7.75 14.3125 -8.5 14.3125 -9.4375 C 14.3125 -10.363281 14.054688 -11.101562 13.546875 -11.65625 C 13.046875 -12.21875 12.382812 -12.5 11.5625 -12.5 C 10.71875 -12.5 10.039062 -12.21875 9.53125 -11.65625 C 9.019531 -11.101562 8.765625 -10.363281 8.765625 -9.4375 C 8.765625 -8.5 9.019531 -7.75 9.53125 -7.1875 C 10.039062 -6.632812 10.71875 -6.359375 11.5625 -6.359375 Z M 11.5625 -6.359375 "/></g></g></g><g fill="#ffffff" fill-opacity="1"><g transform="translate(150.592533, 236.841603)"><g><path d="M 9.609375 0.671875 C 8.359375 0.671875 7.1875 0.425781 6.09375 -0.0625 C 5.007812 -0.5625 4.0625 -1.253906 3.25 -2.140625 C 2.445312 -3.035156 1.820312 -4.097656 1.375 -5.328125 C 0.925781 -6.566406 0.703125 -7.929688 0.703125 -9.421875 C 0.703125 -10.867188 0.914062 -12.207031 1.34375 -13.4375 C 1.78125 -14.664062 2.394531 -15.734375 3.1875 -16.640625 C 3.976562 -17.554688 4.921875 -18.265625 6.015625 -18.765625 C 7.109375 -19.265625 8.320312 -19.515625 9.65625 -19.515625 C 10.3125 -19.515625 10.929688 -19.421875 11.515625 -19.234375 C 12.109375 -19.054688 12.644531 -18.828125 13.125 -18.546875 C 13.613281 -18.265625 14.023438 -17.96875 14.359375 -17.65625 L 14.25 -19.4375 L 14.25 -25.34375 L 22.421875 -25.34375 L 22.421875 0 L 15.046875 0 L 14.75 -1.5625 C 14.363281 -1.175781 13.914062 -0.8125 13.40625 -0.46875 C 12.90625 -0.132812 12.34375 0.132812 11.71875 0.34375 C 11.09375 0.5625 10.390625 0.671875 9.609375 0.671875 Z M 11.515625 -6.328125 C 12.054688 -6.328125 12.535156 -6.460938 12.953125 -6.734375 C 13.367188 -7.003906 13.695312 -7.367188 13.9375 -7.828125 C 14.175781 -8.296875 14.296875 -8.832031 14.296875 -9.4375 C 14.296875 -10.019531 14.175781 -10.539062 13.9375 -11 C 13.707031 -11.46875 13.378906 -11.835938 12.953125 -12.109375 C 12.535156 -12.378906 12.054688 -12.515625 11.515625 -12.515625 C 10.703125 -12.515625 10.035156 -12.238281 9.515625 -11.6875 C 9.003906 -11.132812 8.75 -10.382812 8.75 -9.4375 C 8.75 -8.539062 8.988281 -7.796875 9.46875 -7.203125 C 9.957031 -6.617188 10.640625 -6.328125 11.515625 -6.328125 Z M 11.515625 -6.328125 "/></g></g></g><g fill="#ffffff" fill-opacity="1"><g transform="translate(174.445025, 236.841603)"><g><path d="M 11.328125 0.671875 C 9.617188 0.671875 8.101562 0.40625 6.78125 -0.125 C 5.46875 -0.664062 4.359375 -1.398438 3.453125 -2.328125 C 2.554688 -3.253906 1.875 -4.328125 1.40625 -5.546875 C 0.9375 -6.765625 0.703125 -8.054688 0.703125 -9.421875 C 0.703125 -10.785156 0.9375 -12.070312 1.40625 -13.28125 C 1.875 -14.5 2.554688 -15.578125 3.453125 -16.515625 C 4.359375 -17.453125 5.46875 -18.1875 6.78125 -18.71875 C 8.101562 -19.25 9.617188 -19.515625 11.328125 -19.515625 C 12.941406 -19.515625 14.367188 -19.289062 15.609375 -18.84375 C 16.859375 -18.40625 17.921875 -17.789062 18.796875 -17 C 19.671875 -16.207031 20.375 -15.289062 20.90625 -14.25 C 21.4375 -13.207031 21.796875 -12.082031 21.984375 -10.875 L 13.859375 -10.875 C 13.648438 -11.4375 13.335938 -11.847656 12.921875 -12.109375 C 12.503906 -12.367188 12 -12.5 11.40625 -12.5 C 10.957031 -12.5 10.53125 -12.378906 10.125 -12.140625 C 9.71875 -11.910156 9.390625 -11.566406 9.140625 -11.109375 C 8.890625 -10.660156 8.765625 -10.109375 8.765625 -9.453125 C 8.765625 -8.773438 8.890625 -8.203125 9.140625 -7.734375 C 9.390625 -7.273438 9.710938 -6.925781 10.109375 -6.6875 C 10.515625 -6.457031 10.945312 -6.34375 11.40625 -6.34375 C 11.957031 -6.34375 12.457031 -6.476562 12.90625 -6.75 C 13.351562 -7.03125 13.671875 -7.523438 13.859375 -8.234375 L 21.984375 -8.234375 C 21.828125 -6.992188 21.488281 -5.832031 20.96875 -4.75 C 20.445312 -3.675781 19.742188 -2.734375 18.859375 -1.921875 C 17.972656 -1.109375 16.898438 -0.472656 15.640625 -0.015625 C 14.390625 0.441406 12.953125 0.671875 11.328125 0.671875 Z M 11.328125 0.671875 "/></g></g></g><g fill="#ffffff" fill-opacity="1"><g transform="translate(196.967385, 236.841603)"><g><path d="M 26.6875 0 L 17.921875 0 L 17.09375 -2.78125 L 9.578125 -2.78125 L 8.75 0 L -0.03125 0 L 8.453125 -24.46875 L 18.203125 -24.46875 Z M 13.109375 -14.671875 L 11.40625 -8.953125 L 15.265625 -8.953125 L 13.546875 -14.671875 L 13.390625 -15.65625 L 13.265625 -15.65625 Z M 13.109375 -14.671875 "/></g></g></g><g fill="#ffffff" fill-opacity="1"><g transform="translate(223.623938, 236.841603)"><g><path d="M 10.4375 0 L 1.84375 0 L 1.84375 -24.453125 L 10.4375 -24.453125 Z M 10.4375 0 "/></g></g></g><g fill="#ffffff" fill-opacity="1"><g transform="translate(235.918666, 236.841603)"><g><path d="M 9.796875 0.671875 C 8.109375 0.671875 6.6875 0.472656 5.53125 0.078125 C 4.382812 -0.316406 3.460938 -0.84375 2.765625 -1.5 C 2.066406 -2.164062 1.5625 -2.910156 1.25 -3.734375 C 0.945312 -4.554688 0.796875 -5.394531 0.796875 -6.25 L 7.984375 -6.234375 C 8.015625 -5.828125 8.164062 -5.488281 8.4375 -5.21875 C 8.71875 -4.945312 9.171875 -4.8125 9.796875 -4.8125 C 10.359375 -4.8125 10.742188 -4.898438 10.953125 -5.078125 C 11.160156 -5.253906 11.265625 -5.472656 11.265625 -5.734375 C 11.265625 -5.953125 11.179688 -6.125 11.015625 -6.25 C 10.847656 -6.382812 10.554688 -6.492188 10.140625 -6.578125 C 9.734375 -6.671875 9.148438 -6.75 8.390625 -6.8125 C 6.929688 -6.945312 5.660156 -7.234375 4.578125 -7.671875 C 3.492188 -8.109375 2.65625 -8.75 2.0625 -9.59375 C 1.46875 -10.445312 1.171875 -11.546875 1.171875 -12.890625 C 1.171875 -14.398438 1.53125 -15.640625 2.25 -16.609375 C 2.976562 -17.585938 3.992188 -18.316406 5.296875 -18.796875 C 6.597656 -19.273438 8.113281 -19.515625 9.84375 -19.515625 C 11.070312 -19.515625 12.207031 -19.363281 13.25 -19.0625 C 14.289062 -18.757812 15.195312 -18.316406 15.96875 -17.734375 C 16.738281 -17.148438 17.335938 -16.441406 17.765625 -15.609375 C 18.203125 -14.773438 18.421875 -13.832031 18.421875 -12.78125 L 11.265625 -12.8125 C 11.242188 -13.113281 11.117188 -13.375 10.890625 -13.59375 C 10.660156 -13.820312 10.289062 -13.9375 9.78125 -13.9375 C 9.363281 -13.9375 9.0625 -13.863281 8.875 -13.71875 C 8.695312 -13.570312 8.609375 -13.390625 8.609375 -13.171875 C 8.609375 -13.003906 8.640625 -12.863281 8.703125 -12.75 C 8.773438 -12.644531 8.921875 -12.550781 9.140625 -12.46875 C 9.359375 -12.382812 9.6875 -12.3125 10.125 -12.25 C 10.570312 -12.1875 11.175781 -12.117188 11.9375 -12.046875 C 13.488281 -11.890625 14.78125 -11.597656 15.8125 -11.171875 C 16.851562 -10.742188 17.628906 -10.125 18.140625 -9.3125 C 18.660156 -8.507812 18.921875 -7.441406 18.921875 -6.109375 C 18.921875 -4.878906 18.671875 -3.832031 18.171875 -2.96875 C 17.679688 -2.101562 17.007812 -1.40625 16.15625 -0.875 C 15.3125 -0.34375 14.335938 0.046875 13.234375 0.296875 C 12.140625 0.546875 10.992188 0.671875 9.796875 0.671875 Z M 9.796875 0.671875 "/></g></g></g><g fill="#ffffff" fill-opacity="1"><g transform="translate(255.349369, 236.841603)"><g><path d="M 15.25 0 L 10.59375 0 C 9.914062 0 9.21875 -0.0390625 8.5 -0.125 C 7.789062 -0.207031 7.109375 -0.382812 6.453125 -0.65625 C 5.796875 -0.9375 5.203125 -1.351562 4.671875 -1.90625 C 4.140625 -2.457031 3.71875 -3.191406 3.40625 -4.109375 C 3.101562 -5.035156 2.953125 -6.191406 2.953125 -7.578125 L 2.953125 -12.546875 L 0.125 -12.546875 L 0.125 -18.875 L 3.1875 -18.875 L 4.1875 -24.03125 L 11.125 -24.0625 L 11.125 -18.875 L 15.25 -18.875 L 15.25 -12.546875 L 11.125 -12.546875 L 11.125 -7.890625 C 11.125 -7.378906 11.25 -6.972656 11.5 -6.671875 C 11.75 -6.367188 12.109375 -6.21875 12.578125 -6.21875 L 15.25 -6.21875 Z M 15.25 0 "/></g></g></g><g fill="#ffffff" fill-opacity="1"><g transform="translate(132.248433, 260.184943)"><g><path d="M 5.140625 0 L 1.15625 0 L 1.15625 -8.484375 L 4.78125 -8.484375 C 5.25 -8.484375 5.664062 -8.390625 6.03125 -8.203125 C 6.394531 -8.015625 6.679688 -7.753906 6.890625 -7.421875 C 7.097656 -7.085938 7.203125 -6.695312 7.203125 -6.25 C 7.203125 -5.988281 7.148438 -5.738281 7.046875 -5.5 C 6.953125 -5.269531 6.816406 -5.066406 6.640625 -4.890625 C 6.472656 -4.710938 6.285156 -4.578125 6.078125 -4.484375 C 6.378906 -4.398438 6.648438 -4.253906 6.890625 -4.046875 C 7.140625 -3.847656 7.332031 -3.601562 7.46875 -3.3125 C 7.613281 -3.03125 7.6875 -2.722656 7.6875 -2.390625 C 7.6875 -2.015625 7.613281 -1.675781 7.46875 -1.375 C 7.332031 -1.082031 7.144531 -0.832031 6.90625 -0.625 C 6.664062 -0.414062 6.394531 -0.257812 6.09375 -0.15625 C 5.789062 -0.0507812 5.472656 0 5.140625 0 Z M 2.265625 -7.53125 L 2.265625 -4.8125 L 4.734375 -4.8125 C 4.984375 -4.8125 5.207031 -4.867188 5.40625 -4.984375 C 5.613281 -5.109375 5.773438 -5.273438 5.890625 -5.484375 C 6.015625 -5.691406 6.078125 -5.921875 6.078125 -6.171875 C 6.078125 -6.421875 6.015625 -6.648438 5.890625 -6.859375 C 5.773438 -7.066406 5.613281 -7.226562 5.40625 -7.34375 C 5.207031 -7.46875 4.984375 -7.53125 4.734375 -7.53125 Z M 2.265625 -3.953125 L 2.265625 -0.96875 L 5.046875 -0.96875 C 5.328125 -0.96875 5.582031 -1.03125 5.8125 -1.15625 C 6.039062 -1.289062 6.222656 -1.472656 6.359375 -1.703125 C 6.492188 -1.929688 6.5625 -2.191406 6.5625 -2.484375 C 6.5625 -2.753906 6.492188 -3 6.359375 -3.21875 C 6.222656 -3.4375 6.039062 -3.613281 5.8125 -3.75 C 5.59375 -3.882812 5.34375 -3.953125 5.0625 -3.953125 Z M 2.265625 -3.953125 "/></g></g></g><g fill="#ffffff" fill-opacity="1"><g transform="translate(143.144631, 260.184943)"><g><path d="M 4.65625 0 L 3.5625 0 L 3.5625 -3.25 L 0.125 -8.484375 L 1.421875 -8.484375 L 4.109375 -4.25 L 6.78125 -8.484375 L 8.09375 -8.484375 L 4.65625 -3.25 Z M 4.65625 0 "/></g></g></g><g fill="#ffffff" fill-opacity="1"><g transform="translate(154.065801, 260.184943)"><g/></g></g><g fill="#ffffff" fill-opacity="1"><g transform="translate(159.924093, 260.184943)"><g><path d="M 4.28125 0 L 1.15625 0 L 1.15625 -8.484375 L 4.25 -8.484375 C 4.925781 -8.484375 5.535156 -8.378906 6.078125 -8.171875 C 6.628906 -7.972656 7.101562 -7.6875 7.5 -7.3125 C 7.894531 -6.945312 8.195312 -6.503906 8.40625 -5.984375 C 8.625 -5.460938 8.734375 -4.882812 8.734375 -4.25 C 8.734375 -3.613281 8.625 -3.035156 8.40625 -2.515625 C 8.195312 -1.992188 7.894531 -1.546875 7.5 -1.171875 C 7.113281 -0.796875 6.644531 -0.503906 6.09375 -0.296875 C 5.550781 -0.0976562 4.945312 0 4.28125 0 Z M 2.234375 -7.5 L 2.234375 -1 L 4.25 -1 C 4.945312 -1 5.546875 -1.128906 6.046875 -1.390625 C 6.546875 -1.660156 6.929688 -2.035156 7.203125 -2.515625 C 7.472656 -3.003906 7.609375 -3.570312 7.609375 -4.21875 C 7.609375 -4.882812 7.472656 -5.460938 7.203125 -5.953125 C 6.929688 -6.441406 6.539062 -6.820312 6.03125 -7.09375 C 5.53125 -7.363281 4.925781 -7.5 4.21875 -7.5 Z M 2.234375 -7.5 "/></g></g></g><g fill="#ffffff" fill-opacity="1"><g transform="translate(171.869075, 260.184943)"><g><path d="M 2.265625 0 L 1.15625 0 L 1.15625 -8.484375 L 2.265625 -8.484375 Z M 2.265625 0 "/></g></g></g><g fill="#ffffff" fill-opacity="1"><g transform="translate(177.983326, 260.184943)"><g><path d="M 8.328125 0 L 7.15625 0 L 6.34375 -1.921875 L 2.0625 -1.921875 L 1.25 0 L 0.078125 0 L 3.671875 -8.484375 L 4.734375 -8.484375 Z M 4.15625 -6.9375 L 2.453125 -2.859375 L 5.953125 -2.859375 L 4.25 -6.9375 L 4.21875 -7.078125 L 4.203125 -7.078125 Z M 4.15625 -6.9375 "/></g></g></g><g fill="#ffffff" fill-opacity="1"><g transform="translate(189.091776, 260.184943)"><g><path d="M 7.328125 -1.828125 L 7.328125 -8.484375 L 8.421875 -8.484375 L 8.421875 0 L 7.484375 0 L 2.265625 -6.640625 L 2.265625 0 L 1.15625 0 L 1.15625 -8.484375 L 2.078125 -8.484375 L 7.3125 -1.828125 Z M 7.328125 -1.828125 "/></g></g></g><g fill="#ffffff" fill-opacity="1"><g transform="translate(201.367618, 260.184943)"><g><path d="M 8.328125 0 L 7.15625 0 L 6.34375 -1.921875 L 2.0625 -1.921875 L 1.25 0 L 0.078125 0 L 3.671875 -8.484375 L 4.734375 -8.484375 Z M 4.15625 -6.9375 L 2.453125 -2.859375 L 5.953125 -2.859375 L 4.25 -6.9375 L 4.21875 -7.078125 L 4.203125 -7.078125 Z M 4.15625 -6.9375 "/></g></g></g><g fill="#ffffff" fill-opacity="1"><g transform="translate(212.476071, 260.184943)"><g/></g></g><g fill="#ffffff" fill-opacity="1"><g transform="translate(218.334364, 260.184943)"><g><path d="M 4.09375 0 L 3.015625 0 L 0.125 -8.484375 L 1.296875 -8.484375 L 3.453125 -1.96875 L 3.578125 -1.46875 L 3.609375 -1.46875 L 3.703125 -1.984375 L 5.75 -8.484375 L 6.921875 -8.484375 L 8.953125 -1.984375 L 9.0625 -1.46875 L 9.09375 -1.46875 L 9.21875 -2.015625 L 11.375 -8.484375 L 12.53125 -8.484375 L 9.65625 0 L 8.5625 0 L 6.328125 -6.953125 Z M 4.09375 0 "/></g></g></g><g fill="#ffffff" fill-opacity="1"><g transform="translate(233.706617, 260.184943)"><g><path d="M 4.5 0.171875 C 4.007812 0.171875 3.550781 0.09375 3.125 -0.0625 C 2.695312 -0.226562 2.320312 -0.460938 2 -0.765625 C 1.6875 -1.066406 1.441406 -1.429688 1.265625 -1.859375 C 1.085938 -2.285156 1 -2.757812 1 -3.28125 L 1 -8.5 L 2.09375 -8.5 L 2.09375 -3.375 C 2.09375 -3.03125 2.144531 -2.703125 2.25 -2.390625 C 2.351562 -2.085938 2.507812 -1.816406 2.71875 -1.578125 C 2.925781 -1.347656 3.175781 -1.164062 3.46875 -1.03125 C 3.769531 -0.90625 4.113281 -0.84375 4.5 -0.84375 C 4.882812 -0.84375 5.222656 -0.90625 5.515625 -1.03125 C 5.816406 -1.164062 6.070312 -1.347656 6.28125 -1.578125 C 6.488281 -1.804688 6.644531 -2.070312 6.75 -2.375 C 6.863281 -2.6875 6.921875 -3.015625 6.921875 -3.359375 L 6.921875 -8.5 L 8.015625 -8.5 L 8.015625 -3.28125 C 8.015625 -2.769531 7.925781 -2.300781 7.75 -1.875 C 7.582031 -1.457031 7.34375 -1.09375 7.03125 -0.78125 C 6.71875 -0.476562 6.347656 -0.242188 5.921875 -0.078125 C 5.492188 0.0859375 5.019531 0.171875 4.5 0.171875 Z M 4.5 0.171875 "/></g></g></g></svg>