<svg xmlns="http://www.w3.org/2000/svg" xmlns:xlink="http://www.w3.org/1999/xlink" width="500" zoomAndPan="magnify" viewBox="0 0 375 374.999991" height="500" preserveAspectRatio="xMidYMid meet" version="1.0"><defs><g/><clipPath id="517791503e"><path d="M 129.140625 110.195312 L 246.140625 110.195312 L 246.140625 205.445312 L 129.140625 205.445312 Z M 129.140625 110.195312 " clip-rule="nonzero"/></clipPath><clipPath id="7bf44db621"><path d="M 168.144531 139.089844 L 237.894531 139.089844 L 237.894531 169.839844 L 168.144531 169.839844 Z M 168.144531 139.089844 " clip-rule="nonzero"/></clipPath></defs><g clip-path="url(#517791503e)"><path fill="#000000" d="M 234.125 184.21875 L 234.078125 205.425781 L 216.726562 185.84375 L 180 185.84375 C 169.078125 185.84375 160.21875 177.007812 160.21875 166.109375 L 160.21875 143.148438 C 160.21875 132.25 169.074219 123.414062 180 123.414062 L 226.292969 123.414062 C 237.21875 123.414062 246.074219 132.25 246.074219 143.148438 L 246.074219 166.109375 C 246.074219 174.230469 241.148438 181.191406 234.125 184.21875 Z M 153.84375 143.089844 L 153.84375 159.53125 L 139.082031 175.984375 L 139.054688 158.15625 C 133.226562 155.621094 129.140625 149.835938 129.140625 143.089844 L 129.140625 126.660156 C 129.140625 117.578125 136.519531 110.21875 145.628906 110.21875 L 184.789062 110.21875 C 190.15625 110.21875 194.878906 112.816406 197.886719 116.777344 L 180.21875 116.777344 C 165.652344 116.777344 153.84375 128.554688 153.84375 143.089844 Z M 153.84375 143.089844 " fill-opacity="1" fill-rule="evenodd"/></g><g clip-path="url(#7bf44db621)"><path fill="#fab713" d="M 237.835938 154.457031 C 237.835938 154.539062 237.773438 154.609375 237.714844 154.664062 C 237.542969 154.828125 236.398438 155.027344 235.921875 155.082031 C 235.882812 155.085938 235.84375 155.09375 235.804688 155.101562 C 235.804688 155.101562 235.800781 155.101562 235.800781 155.101562 C 234.800781 155.25 234.136719 155.757812 233.414062 156.777344 C 232.804688 157.589844 232.351562 158.503906 231.949219 159.433594 C 231.578125 160.285156 231.257812 161.191406 230.621094 161.894531 C 230.125 162.414062 229.421875 162.796875 228.699219 162.875 C 227.597656 162.960938 226.472656 162.414062 225.789062 161.566406 C 224.851562 160.542969 224.25 157.960938 223.945312 157.289062 C 223.738281 156.800781 223.515625 156.316406 223.203125 155.886719 C 223.128906 155.804688 223.042969 155.726562 222.957031 155.65625 C 222.957031 155.652344 222.957031 155.652344 222.953125 155.652344 C 222.902344 155.613281 222.804688 155.5625 222.734375 155.527344 C 222.710938 155.519531 222.6875 155.515625 222.664062 155.511719 L 222.636719 155.511719 C 222.621094 155.519531 222.605469 155.527344 222.589844 155.535156 C 222.550781 155.574219 222.515625 155.613281 222.480469 155.65625 C 222.457031 155.695312 222.417969 155.757812 222.390625 155.808594 C 222.027344 156.503906 221.898438 156.960938 221.855469 157.84375 C 221.777344 159.308594 221.828125 160.777344 221.769531 162.246094 C 221.675781 164.636719 221.601562 167.640625 219.304688 169.027344 C 218.644531 169.386719 217.863281 169.359375 217.207031 169.007812 C 215.789062 168.308594 215.074219 166.171875 214.652344 164.738281 C 214.242188 163.070312 213.890625 161.386719 213.421875 159.730469 C 212.96875 158.078125 212.496094 156.664062 211.679688 155.789062 C 211.375 155.5625 211.265625 155.476562 210.621094 155.347656 C 210.523438 155.34375 210.402344 155.34375 210.335938 155.34375 C 209.980469 155.421875 210.175781 155.386719 209.730469 155.59375 C 209.359375 155.828125 209.617188 155.625 209.289062 155.9375 C 209.28125 155.945312 209.273438 155.953125 209.269531 155.960938 C 209.242188 155.996094 209.21875 156.035156 209.195312 156.074219 C 209.179688 156.105469 209.167969 156.128906 209.160156 156.148438 C 209.132812 156.210938 209.109375 156.273438 209.085938 156.335938 C 208.726562 157.632812 208.597656 158.976562 208.347656 160.292969 C 208.191406 161.03125 208.070312 161.828125 207.597656 162.4375 C 207.097656 163.0625 206.269531 163.449219 205.464844 163.390625 C 205.257812 163.375 205.0625 163.3125 204.875 163.230469 L 204.871094 163.230469 C 204.859375 163.222656 204.84375 163.21875 204.828125 163.210938 C 204.824219 163.210938 204.824219 163.207031 204.820312 163.207031 C 204.820312 163.207031 204.816406 163.207031 204.816406 163.207031 C 204.804688 163.199219 204.792969 163.195312 204.785156 163.191406 C 204.78125 163.191406 204.78125 163.191406 204.78125 163.191406 C 204.773438 163.1875 204.773438 163.1875 204.773438 163.1875 L 204.769531 163.1875 C 204.328125 162.992188 203.933594 162.691406 203.597656 162.351562 C 203.035156 161.730469 202.710938 160.945312 202.417969 160.171875 C 201.878906 158.8125 201.589844 157.113281 201.074219 156.183594 C 200.695312 155.539062 200.53125 155.363281 199.867188 155.179688 C 199.84375 155.179688 199.816406 155.175781 199.792969 155.179688 C 199.761719 155.179688 199.734375 155.179688 199.710938 155.183594 C 199.648438 155.195312 199.582031 155.214844 199.519531 155.238281 C 199.460938 155.269531 199.390625 155.3125 199.355469 155.335938 C 199.320312 155.363281 199.285156 155.394531 199.253906 155.425781 C 198.878906 155.851562 198.980469 155.628906 198.789062 156.253906 C 198.570312 157.199219 198.566406 157.429688 198.460938 158.367188 C 198.246094 160.34375 198.050781 162.324219 197.683594 164.28125 C 197.378906 165.679688 197.058594 167.140625 196.265625 168.351562 C 196.089844 168.613281 195.847656 168.820312 195.613281 169.027344 C 195.402344 169.207031 195.183594 169.398438 194.921875 169.496094 C 194.1875 169.835938 193.4375 169.492188 192.820312 169.074219 C 192.183594 168.621094 191.917969 167.832031 191.53125 167.183594 C 190.589844 165.277344 190.292969 163.136719 190.058594 161.046875 C 189.804688 159.140625 189.78125 157.460938 188.816406 156.03125 C 188.359375 155.363281 187.3125 155.003906 186.871094 155.203125 C 186.441406 155.46875 186.328125 155.726562 186.109375 156.617188 C 185.90625 157.605469 185.714844 158.601562 185.421875 159.570312 C 185.195312 160.28125 184.933594 161.003906 184.496094 161.613281 C 184.113281 162.074219 183.574219 162.4375 182.980469 162.566406 C 182.535156 162.671875 182.109375 162.421875 181.742188 162.199219 C 180.578125 161.417969 180.402344 159.871094 180.128906 158.609375 C 179.871094 157.148438 179.320312 155.738281 178.859375 155.386719 C 178.535156 155.179688 178.699219 155.222656 178.375 155.15625 C 178.359375 155.15625 178.332031 155.15625 178.304688 155.160156 C 178.292969 155.164062 178.261719 155.171875 178.230469 155.183594 C 178.214844 155.1875 178.191406 155.203125 178.160156 155.21875 C 177.765625 155.433594 177.703125 155.5625 177.484375 155.824219 C 177.128906 156.367188 176.863281 156.972656 176.4375 157.472656 C 176.097656 157.894531 175.628906 158.203125 175.121094 158.398438 C 174.03125 158.933594 173.03125 157.984375 172.273438 157.300781 C 171.386719 156.40625 170.8125 155.789062 169.808594 155.289062 C 169.777344 155.277344 169.75 155.265625 169.71875 155.25 C 169.679688 155.238281 169.640625 155.222656 169.601562 155.207031 C 169.40625 155.136719 169.203125 155.074219 169.003906 155.023438 C 168.800781 154.957031 168.570312 154.960938 168.394531 154.832031 C 168.277344 154.75 168.210938 154.601562 168.21875 154.460938 C 168.210938 154.316406 168.277344 154.167969 168.394531 154.085938 C 168.570312 153.957031 168.800781 153.964844 169.003906 153.894531 C 169.203125 153.84375 169.40625 153.78125 169.601562 153.710938 C 169.640625 153.695312 169.679688 153.679688 169.71875 153.667969 C 169.75 153.652344 169.777344 153.640625 169.808594 153.628906 C 170.8125 153.128906 171.386719 152.515625 172.273438 151.617188 C 173.03125 150.933594 174.03125 149.984375 175.121094 150.519531 C 175.628906 150.714844 176.097656 151.023438 176.4375 151.445312 C 176.863281 151.945312 177.128906 152.550781 177.484375 153.09375 C 177.703125 153.355469 177.765625 153.484375 178.160156 153.703125 C 178.191406 153.714844 178.214844 153.730469 178.230469 153.734375 C 178.261719 153.746094 178.292969 153.753906 178.304688 153.757812 C 178.332031 153.761719 178.359375 153.761719 178.375 153.761719 C 178.699219 153.695312 178.535156 153.738281 178.859375 153.53125 C 179.320312 153.179688 179.871094 151.769531 180.128906 150.308594 C 180.402344 149.046875 180.578125 147.5 181.742188 146.722656 C 182.109375 146.496094 182.535156 146.246094 182.980469 146.351562 C 183.574219 146.480469 184.117188 146.839844 184.496094 147.304688 C 184.933594 147.914062 185.195312 148.640625 185.421875 149.347656 C 185.714844 150.316406 185.90625 151.3125 186.109375 152.300781 C 186.328125 153.191406 186.441406 153.449219 186.871094 153.714844 C 187.3125 153.914062 188.359375 153.554688 188.816406 152.886719 C 189.78125 151.457031 189.804688 149.773438 190.058594 147.871094 C 190.292969 145.78125 190.589844 143.640625 191.53125 141.734375 C 191.917969 141.085938 192.183594 140.296875 192.820312 139.84375 C 193.4375 139.425781 194.1875 139.085938 194.921875 139.421875 C 195.183594 139.523438 195.402344 139.710938 195.613281 139.890625 C 195.847656 140.097656 196.089844 140.304688 196.265625 140.566406 C 197.058594 141.777344 197.378906 143.238281 197.683594 144.636719 C 198.050781 146.59375 198.246094 148.578125 198.460938 150.550781 C 198.566406 151.488281 198.570312 151.71875 198.789062 152.664062 C 198.980469 153.289062 198.878906 153.066406 199.253906 153.492188 C 199.285156 153.523438 199.320312 153.554688 199.355469 153.582031 C 199.390625 153.605469 199.460938 153.648438 199.519531 153.679688 C 199.582031 153.703125 199.648438 153.722656 199.710938 153.734375 C 199.734375 153.738281 199.761719 153.738281 199.792969 153.738281 C 199.816406 153.738281 199.84375 153.738281 199.867188 153.738281 C 200.53125 153.554688 200.695312 153.378906 201.074219 152.734375 C 201.589844 151.804688 201.878906 150.105469 202.417969 148.742188 C 202.710938 147.972656 203.035156 147.1875 203.597656 146.566406 C 203.933594 146.226562 204.328125 145.925781 204.769531 145.734375 C 204.769531 145.734375 204.773438 145.730469 204.78125 145.730469 C 204.78125 145.730469 204.78125 145.726562 204.785156 145.726562 C 204.792969 145.722656 204.804688 145.71875 204.816406 145.710938 C 204.820312 145.710938 204.824219 145.707031 204.828125 145.707031 C 204.835938 145.703125 204.84375 145.699219 204.855469 145.695312 C 204.859375 145.695312 204.867188 145.691406 204.871094 145.6875 C 204.878906 145.6875 204.882812 145.683594 204.890625 145.679688 C 205.074219 145.601562 205.265625 145.542969 205.464844 145.527344 C 206.269531 145.46875 207.097656 145.855469 207.597656 146.480469 C 208.070312 147.089844 208.191406 147.886719 208.347656 148.625 C 208.59375 149.945312 208.726562 151.285156 209.085938 152.582031 C 209.109375 152.644531 209.132812 152.707031 209.160156 152.769531 C 209.167969 152.789062 209.179688 152.8125 209.195312 152.84375 C 209.21875 152.886719 209.242188 152.921875 209.269531 152.957031 C 209.273438 152.964844 209.28125 152.972656 209.289062 152.980469 C 209.617188 153.289062 209.359375 153.089844 209.730469 153.324219 C 210.175781 153.53125 209.980469 153.496094 210.335938 153.574219 C 210.402344 153.574219 210.523438 153.578125 210.621094 153.574219 C 211.265625 153.441406 211.375 153.355469 211.679688 153.128906 C 212.496094 152.253906 212.96875 150.839844 213.421875 149.1875 C 213.890625 147.53125 214.242188 145.847656 214.648438 144.179688 C 215.074219 142.75 215.785156 140.613281 217.207031 139.910156 C 217.863281 139.558594 218.644531 139.53125 219.300781 139.890625 C 221.601562 141.277344 221.671875 144.285156 221.769531 146.671875 C 221.824219 148.140625 221.777344 149.609375 221.855469 151.074219 C 221.898438 151.957031 222.027344 152.414062 222.390625 153.109375 C 222.417969 153.164062 222.457031 153.222656 222.480469 153.261719 C 222.515625 153.304688 222.550781 153.34375 222.589844 153.382812 C 222.605469 153.390625 222.621094 153.398438 222.636719 153.410156 L 222.664062 153.410156 C 222.683594 153.402344 222.710938 153.398438 222.734375 153.390625 C 222.804688 153.355469 222.902344 153.304688 222.953125 153.269531 C 222.953125 153.265625 222.957031 153.265625 222.957031 153.261719 C 223.042969 153.191406 223.128906 153.113281 223.203125 153.03125 C 223.515625 152.601562 223.738281 152.117188 223.945312 151.628906 C 224.25 150.960938 224.851562 148.375 225.789062 147.355469 C 226.472656 146.507812 227.597656 145.957031 228.699219 146.046875 C 229.421875 146.125 230.125 146.503906 230.621094 147.023438 C 231.257812 147.726562 231.574219 148.632812 231.949219 149.484375 C 232.351562 150.414062 232.804688 151.328125 233.414062 152.144531 C 234.136719 153.160156 234.796875 153.664062 235.792969 153.816406 C 235.835938 153.824219 235.878906 153.832031 235.921875 153.835938 C 236.300781 153.875 237.570312 154.105469 237.714844 154.253906 C 237.773438 154.308594 237.835938 154.378906 237.835938 154.457031 Z M 237.835938 154.457031 " fill-opacity="1" fill-rule="nonzero"/></g><g fill="#000000" fill-opacity="1"><g transform="translate(103.641268, 236.287134)"><g><path d="M 9.609375 6.4375 L 1.4375 6.4375 L 1.4375 -18.875 L 8.796875 -18.875 L 9.09375 -17.296875 C 9.832031 -18.109375 10.648438 -18.675781 11.546875 -19 C 12.441406 -19.332031 13.320312 -19.5 14.1875 -19.5 C 15.457031 -19.5 16.632812 -19.253906 17.71875 -18.765625 C 18.800781 -18.273438 19.75 -17.582031 20.5625 -16.6875 C 21.375 -15.789062 22.007812 -14.722656 22.46875 -13.484375 C 22.925781 -12.253906 23.15625 -10.898438 23.15625 -9.421875 C 23.15625 -7.972656 22.929688 -6.632812 22.484375 -5.40625 C 22.046875 -4.175781 21.421875 -3.109375 20.609375 -2.203125 C 19.804688 -1.296875 18.863281 -0.585938 17.78125 -0.078125 C 16.707031 0.421875 15.53125 0.671875 14.25 0.671875 C 13.332031 0.671875 12.460938 0.492188 11.640625 0.140625 C 10.816406 -0.203125 10.109375 -0.648438 9.515625 -1.203125 L 9.609375 0.5 Z M 12.328125 -6.328125 C 12.828125 -6.328125 13.285156 -6.441406 13.703125 -6.671875 C 14.128906 -6.898438 14.46875 -7.242188 14.71875 -7.703125 C 14.96875 -8.160156 15.09375 -8.738281 15.09375 -9.4375 C 15.09375 -10.445312 14.820312 -11.210938 14.28125 -11.734375 C 13.75 -12.253906 13.09375 -12.515625 12.3125 -12.515625 C 11.800781 -12.515625 11.332031 -12.378906 10.90625 -12.109375 C 10.488281 -11.835938 10.160156 -11.46875 9.921875 -11 C 9.679688 -10.539062 9.5625 -10.019531 9.5625 -9.4375 C 9.5625 -8.800781 9.6875 -8.25 9.9375 -7.78125 C 10.1875 -7.3125 10.523438 -6.953125 10.953125 -6.703125 C 11.378906 -6.453125 11.835938 -6.328125 12.328125 -6.328125 Z M 12.328125 -6.328125 "/></g></g></g><g fill="#000000" fill-opacity="1"><g transform="translate(127.509339, 236.287134)"><g><path d="M 11.484375 0.671875 C 9.890625 0.671875 8.429688 0.421875 7.109375 -0.078125 C 5.785156 -0.578125 4.644531 -1.273438 3.6875 -2.171875 C 2.738281 -3.066406 2.003906 -4.128906 1.484375 -5.359375 C 0.960938 -6.585938 0.703125 -7.941406 0.703125 -9.421875 C 0.703125 -10.890625 0.960938 -12.238281 1.484375 -13.46875 C 2.003906 -14.695312 2.738281 -15.765625 3.6875 -16.671875 C 4.644531 -17.578125 5.78125 -18.273438 7.09375 -18.765625 C 8.414062 -19.265625 9.875 -19.515625 11.46875 -19.515625 C 13.09375 -19.515625 14.570312 -19.265625 15.90625 -18.765625 C 17.25 -18.273438 18.398438 -17.578125 19.359375 -16.671875 C 20.328125 -15.773438 21.070312 -14.707031 21.59375 -13.46875 C 22.113281 -12.238281 22.375 -10.890625 22.375 -9.421875 C 22.375 -7.941406 22.113281 -6.582031 21.59375 -5.34375 C 21.070312 -4.113281 20.332031 -3.050781 19.375 -2.15625 C 18.414062 -1.257812 17.269531 -0.5625 15.9375 -0.0625 C 14.601562 0.425781 13.117188 0.671875 11.484375 0.671875 Z M 11.5625 -6.359375 C 12.382812 -6.359375 13.046875 -6.632812 13.546875 -7.1875 C 14.054688 -7.75 14.3125 -8.5 14.3125 -9.4375 C 14.3125 -10.363281 14.054688 -11.101562 13.546875 -11.65625 C 13.046875 -12.21875 12.382812 -12.5 11.5625 -12.5 C 10.71875 -12.5 10.039062 -12.21875 9.53125 -11.65625 C 9.019531 -11.101562 8.765625 -10.363281 8.765625 -9.4375 C 8.765625 -8.5 9.019531 -7.75 9.53125 -7.1875 C 10.039062 -6.632812 10.71875 -6.359375 11.5625 -6.359375 Z M 11.5625 -6.359375 "/></g></g></g><g fill="#000000" fill-opacity="1"><g transform="translate(150.604579, 236.287134)"><g><path d="M 9.609375 0.671875 C 8.359375 0.671875 7.1875 0.425781 6.09375 -0.0625 C 5.007812 -0.5625 4.0625 -1.253906 3.25 -2.140625 C 2.445312 -3.035156 1.820312 -4.097656 1.375 -5.328125 C 0.925781 -6.566406 0.703125 -7.929688 0.703125 -9.421875 C 0.703125 -10.867188 0.914062 -12.207031 1.34375 -13.4375 C 1.78125 -14.664062 2.394531 -15.734375 3.1875 -16.640625 C 3.976562 -17.554688 4.921875 -18.265625 6.015625 -18.765625 C 7.109375 -19.265625 8.320312 -19.515625 9.65625 -19.515625 C 10.3125 -19.515625 10.929688 -19.421875 11.515625 -19.234375 C 12.109375 -19.054688 12.644531 -18.828125 13.125 -18.546875 C 13.613281 -18.265625 14.023438 -17.96875 14.359375 -17.65625 L 14.25 -19.4375 L 14.25 -25.34375 L 22.421875 -25.34375 L 22.421875 0 L 15.046875 0 L 14.75 -1.5625 C 14.363281 -1.175781 13.914062 -0.8125 13.40625 -0.46875 C 12.90625 -0.132812 12.34375 0.132812 11.71875 0.34375 C 11.09375 0.5625 10.390625 0.671875 9.609375 0.671875 Z M 11.515625 -6.328125 C 12.054688 -6.328125 12.535156 -6.460938 12.953125 -6.734375 C 13.367188 -7.003906 13.695312 -7.367188 13.9375 -7.828125 C 14.175781 -8.296875 14.296875 -8.832031 14.296875 -9.4375 C 14.296875 -10.019531 14.175781 -10.539062 13.9375 -11 C 13.707031 -11.46875 13.378906 -11.835938 12.953125 -12.109375 C 12.535156 -12.378906 12.054688 -12.515625 11.515625 -12.515625 C 10.703125 -12.515625 10.035156 -12.238281 9.515625 -11.6875 C 9.003906 -11.132812 8.75 -10.382812 8.75 -9.4375 C 8.75 -8.539062 8.988281 -7.796875 9.46875 -7.203125 C 9.957031 -6.617188 10.640625 -6.328125 11.515625 -6.328125 Z M 11.515625 -6.328125 "/></g></g></g><g fill="#000000" fill-opacity="1"><g transform="translate(174.454682, 236.287134)"><g><path d="M 11.328125 0.671875 C 9.617188 0.671875 8.101562 0.40625 6.78125 -0.125 C 5.46875 -0.664062 4.359375 -1.398438 3.453125 -2.328125 C 2.554688 -3.253906 1.875 -4.328125 1.40625 -5.546875 C 0.9375 -6.765625 0.703125 -8.054688 0.703125 -9.421875 C 0.703125 -10.785156 0.9375 -12.070312 1.40625 -13.28125 C 1.875 -14.5 2.554688 -15.578125 3.453125 -16.515625 C 4.359375 -17.453125 5.46875 -18.1875 6.78125 -18.71875 C 8.101562 -19.25 9.617188 -19.515625 11.328125 -19.515625 C 12.941406 -19.515625 14.367188 -19.289062 15.609375 -18.84375 C 16.859375 -18.40625 17.921875 -17.789062 18.796875 -17 C 19.671875 -16.207031 20.375 -15.289062 20.90625 -14.25 C 21.4375 -13.207031 21.796875 -12.082031 21.984375 -10.875 L 13.859375 -10.875 C 13.648438 -11.4375 13.335938 -11.847656 12.921875 -12.109375 C 12.503906 -12.367188 12 -12.5 11.40625 -12.5 C 10.957031 -12.5 10.53125 -12.378906 10.125 -12.140625 C 9.71875 -11.910156 9.390625 -11.566406 9.140625 -11.109375 C 8.890625 -10.660156 8.765625 -10.109375 8.765625 -9.453125 C 8.765625 -8.773438 8.890625 -8.203125 9.140625 -7.734375 C 9.390625 -7.273438 9.710938 -6.925781 10.109375 -6.6875 C 10.515625 -6.457031 10.945312 -6.34375 11.40625 -6.34375 C 11.957031 -6.34375 12.457031 -6.476562 12.90625 -6.75 C 13.351562 -7.03125 13.671875 -7.523438 13.859375 -8.234375 L 21.984375 -8.234375 C 21.828125 -6.992188 21.488281 -5.832031 20.96875 -4.75 C 20.445312 -3.675781 19.742188 -2.734375 18.859375 -1.921875 C 17.972656 -1.109375 16.898438 -0.472656 15.640625 -0.015625 C 14.390625 0.441406 12.953125 0.671875 11.328125 0.671875 Z M 11.328125 0.671875 "/></g></g></g><g fill="#000000" fill-opacity="1"><g transform="translate(196.974788, 236.287134)"><g><path d="M 26.6875 0 L 17.921875 0 L 17.09375 -2.78125 L 9.578125 -2.78125 L 8.75 0 L -0.03125 0 L 8.453125 -24.46875 L 18.203125 -24.46875 Z M 13.109375 -14.671875 L 11.40625 -8.953125 L 15.265625 -8.953125 L 13.546875 -14.671875 L 13.390625 -15.65625 L 13.265625 -15.65625 Z M 13.109375 -14.671875 "/></g></g></g><g fill="#000000" fill-opacity="1"><g transform="translate(223.628671, 236.287134)"><g><path d="M 10.4375 0 L 1.84375 0 L 1.84375 -24.453125 L 10.4375 -24.453125 Z M 10.4375 0 "/></g></g></g><g fill="#000000" fill-opacity="1"><g transform="translate(235.922165, 236.287134)"><g><path d="M 9.796875 0.671875 C 8.109375 0.671875 6.6875 0.472656 5.53125 0.078125 C 4.382812 -0.316406 3.460938 -0.84375 2.765625 -1.5 C 2.066406 -2.164062 1.5625 -2.910156 1.25 -3.734375 C 0.945312 -4.554688 0.796875 -5.394531 0.796875 -6.25 L 7.984375 -6.234375 C 8.015625 -5.828125 8.164062 -5.488281 8.4375 -5.21875 C 8.71875 -4.945312 9.171875 -4.8125 9.796875 -4.8125 C 10.359375 -4.8125 10.742188 -4.898438 10.953125 -5.078125 C 11.160156 -5.253906 11.265625 -5.472656 11.265625 -5.734375 C 11.265625 -5.953125 11.179688 -6.125 11.015625 -6.25 C 10.847656 -6.382812 10.554688 -6.492188 10.140625 -6.578125 C 9.734375 -6.671875 9.148438 -6.75 8.390625 -6.8125 C 6.929688 -6.945312 5.660156 -7.234375 4.578125 -7.671875 C 3.492188 -8.109375 2.65625 -8.75 2.0625 -9.59375 C 1.46875 -10.445312 1.171875 -11.546875 1.171875 -12.890625 C 1.171875 -14.398438 1.53125 -15.640625 2.25 -16.609375 C 2.976562 -17.585938 3.992188 -18.316406 5.296875 -18.796875 C 6.597656 -19.273438 8.113281 -19.515625 9.84375 -19.515625 C 11.070312 -19.515625 12.207031 -19.363281 13.25 -19.0625 C 14.289062 -18.757812 15.195312 -18.316406 15.96875 -17.734375 C 16.738281 -17.148438 17.335938 -16.441406 17.765625 -15.609375 C 18.203125 -14.773438 18.421875 -13.832031 18.421875 -12.78125 L 11.265625 -12.8125 C 11.242188 -13.113281 11.117188 -13.375 10.890625 -13.59375 C 10.660156 -13.820312 10.289062 -13.9375 9.78125 -13.9375 C 9.363281 -13.9375 9.0625 -13.863281 8.875 -13.71875 C 8.695312 -13.570312 8.609375 -13.390625 8.609375 -13.171875 C 8.609375 -13.003906 8.640625 -12.863281 8.703125 -12.75 C 8.773438 -12.644531 8.921875 -12.550781 9.140625 -12.46875 C 9.359375 -12.382812 9.6875 -12.3125 10.125 -12.25 C 10.570312 -12.1875 11.175781 -12.117188 11.9375 -12.046875 C 13.488281 -11.890625 14.78125 -11.597656 15.8125 -11.171875 C 16.851562 -10.742188 17.628906 -10.125 18.140625 -9.3125 C 18.660156 -8.507812 18.921875 -7.441406 18.921875 -6.109375 C 18.921875 -4.878906 18.671875 -3.832031 18.171875 -2.96875 C 17.679688 -2.101562 17.007812 -1.40625 16.15625 -0.875 C 15.3125 -0.34375 14.335938 0.046875 13.234375 0.296875 C 12.140625 0.546875 10.992188 0.671875 9.796875 0.671875 Z M 9.796875 0.671875 "/></g></g></g><g fill="#000000" fill-opacity="1"><g transform="translate(255.350925, 236.287134)"><g><path d="M 15.25 0 L 10.59375 0 C 9.914062 0 9.21875 -0.0390625 8.5 -0.125 C 7.789062 -0.207031 7.109375 -0.382812 6.453125 -0.65625 C 5.796875 -0.9375 5.203125 -1.351562 4.671875 -1.90625 C 4.140625 -2.457031 3.71875 -3.191406 3.40625 -4.109375 C 3.101562 -5.035156 2.953125 -6.191406 2.953125 -7.578125 L 2.953125 -12.546875 L 0.125 -12.546875 L 0.125 -18.875 L 3.1875 -18.875 L 4.1875 -24.03125 L 11.125 -24.0625 L 11.125 -18.875 L 15.25 -18.875 L 15.25 -12.546875 L 11.125 -12.546875 L 11.125 -7.890625 C 11.125 -7.378906 11.25 -6.972656 11.5 -6.671875 C 11.75 -6.367188 12.109375 -6.21875 12.578125 -6.21875 L 15.25 -6.21875 Z M 15.25 0 "/></g></g></g><g fill="#000000" fill-opacity="1"><g transform="translate(132.248433, 260.184943)"><g><path d="M 5.140625 0 L 1.15625 0 L 1.15625 -8.484375 L 4.78125 -8.484375 C 5.25 -8.484375 5.664062 -8.390625 6.03125 -8.203125 C 6.394531 -8.015625 6.679688 -7.753906 6.890625 -7.421875 C 7.097656 -7.085938 7.203125 -6.695312 7.203125 -6.25 C 7.203125 -5.988281 7.148438 -5.738281 7.046875 -5.5 C 6.953125 -5.269531 6.816406 -5.066406 6.640625 -4.890625 C 6.472656 -4.710938 6.285156 -4.578125 6.078125 -4.484375 C 6.378906 -4.398438 6.648438 -4.253906 6.890625 -4.046875 C 7.140625 -3.847656 7.332031 -3.601562 7.46875 -3.3125 C 7.613281 -3.03125 7.6875 -2.722656 7.6875 -2.390625 C 7.6875 -2.015625 7.613281 -1.675781 7.46875 -1.375 C 7.332031 -1.082031 7.144531 -0.832031 6.90625 -0.625 C 6.664062 -0.414062 6.394531 -0.257812 6.09375 -0.15625 C 5.789062 -0.0507812 5.472656 0 5.140625 0 Z M 2.265625 -7.53125 L 2.265625 -4.8125 L 4.734375 -4.8125 C 4.984375 -4.8125 5.207031 -4.867188 5.40625 -4.984375 C 5.613281 -5.109375 5.773438 -5.273438 5.890625 -5.484375 C 6.015625 -5.691406 6.078125 -5.921875 6.078125 -6.171875 C 6.078125 -6.421875 6.015625 -6.648438 5.890625 -6.859375 C 5.773438 -7.066406 5.613281 -7.226562 5.40625 -7.34375 C 5.207031 -7.46875 4.984375 -7.53125 4.734375 -7.53125 Z M 2.265625 -3.953125 L 2.265625 -0.96875 L 5.046875 -0.96875 C 5.328125 -0.96875 5.582031 -1.03125 5.8125 -1.15625 C 6.039062 -1.289062 6.222656 -1.472656 6.359375 -1.703125 C 6.492188 -1.929688 6.5625 -2.191406 6.5625 -2.484375 C 6.5625 -2.753906 6.492188 -3 6.359375 -3.21875 C 6.222656 -3.4375 6.039062 -3.613281 5.8125 -3.75 C 5.59375 -3.882812 5.34375 -3.953125 5.0625 -3.953125 Z M 2.265625 -3.953125 "/></g></g></g><g fill="#000000" fill-opacity="1"><g transform="translate(143.144631, 260.184943)"><g><path d="M 4.65625 0 L 3.5625 0 L 3.5625 -3.25 L 0.125 -8.484375 L 1.421875 -8.484375 L 4.109375 -4.25 L 6.78125 -8.484375 L 8.09375 -8.484375 L 4.65625 -3.25 Z M 4.65625 0 "/></g></g></g><g fill="#000000" fill-opacity="1"><g transform="translate(154.065801, 260.184943)"><g/></g></g><g fill="#000000" fill-opacity="1"><g transform="translate(159.924093, 260.184943)"><g><path d="M 4.28125 0 L 1.15625 0 L 1.15625 -8.484375 L 4.25 -8.484375 C 4.925781 -8.484375 5.535156 -8.378906 6.078125 -8.171875 C 6.628906 -7.972656 7.101562 -7.6875 7.5 -7.3125 C 7.894531 -6.945312 8.195312 -6.503906 8.40625 -5.984375 C 8.625 -5.460938 8.734375 -4.882812 8.734375 -4.25 C 8.734375 -3.613281 8.625 -3.035156 8.40625 -2.515625 C 8.195312 -1.992188 7.894531 -1.546875 7.5 -1.171875 C 7.113281 -0.796875 6.644531 -0.503906 6.09375 -0.296875 C 5.550781 -0.0976562 4.945312 0 4.28125 0 Z M 2.234375 -7.5 L 2.234375 -1 L 4.25 -1 C 4.945312 -1 5.546875 -1.128906 6.046875 -1.390625 C 6.546875 -1.660156 6.929688 -2.035156 7.203125 -2.515625 C 7.472656 -3.003906 7.609375 -3.570312 7.609375 -4.21875 C 7.609375 -4.882812 7.472656 -5.460938 7.203125 -5.953125 C 6.929688 -6.441406 6.539062 -6.820312 6.03125 -7.09375 C 5.53125 -7.363281 4.925781 -7.5 4.21875 -7.5 Z M 2.234375 -7.5 "/></g></g></g><g fill="#000000" fill-opacity="1"><g transform="translate(171.869075, 260.184943)"><g><path d="M 2.265625 0 L 1.15625 0 L 1.15625 -8.484375 L 2.265625 -8.484375 Z M 2.265625 0 "/></g></g></g><g fill="#000000" fill-opacity="1"><g transform="translate(177.983326, 260.184943)"><g><path d="M 8.328125 0 L 7.15625 0 L 6.34375 -1.921875 L 2.0625 -1.921875 L 1.25 0 L 0.078125 0 L 3.671875 -8.484375 L 4.734375 -8.484375 Z M 4.15625 -6.9375 L 2.453125 -2.859375 L 5.953125 -2.859375 L 4.25 -6.9375 L 4.21875 -7.078125 L 4.203125 -7.078125 Z M 4.15625 -6.9375 "/></g></g></g><g fill="#000000" fill-opacity="1"><g transform="translate(189.091776, 260.184943)"><g><path d="M 7.328125 -1.828125 L 7.328125 -8.484375 L 8.421875 -8.484375 L 8.421875 0 L 7.484375 0 L 2.265625 -6.640625 L 2.265625 0 L 1.15625 0 L 1.15625 -8.484375 L 2.078125 -8.484375 L 7.3125 -1.828125 Z M 7.328125 -1.828125 "/></g></g></g><g fill="#000000" fill-opacity="1"><g transform="translate(201.367618, 260.184943)"><g><path d="M 8.328125 0 L 7.15625 0 L 6.34375 -1.921875 L 2.0625 -1.921875 L 1.25 0 L 0.078125 0 L 3.671875 -8.484375 L 4.734375 -8.484375 Z M 4.15625 -6.9375 L 2.453125 -2.859375 L 5.953125 -2.859375 L 4.25 -6.9375 L 4.21875 -7.078125 L 4.203125 -7.078125 Z M 4.15625 -6.9375 "/></g></g></g><g fill="#000000" fill-opacity="1"><g transform="translate(212.476071, 260.184943)"><g/></g></g><g fill="#000000" fill-opacity="1"><g transform="translate(218.334364, 260.184943)"><g><path d="M 4.09375 0 L 3.015625 0 L 0.125 -8.484375 L 1.296875 -8.484375 L 3.453125 -1.96875 L 3.578125 -1.46875 L 3.609375 -1.46875 L 3.703125 -1.984375 L 5.75 -8.484375 L 6.921875 -8.484375 L 8.953125 -1.984375 L 9.0625 -1.46875 L 9.09375 -1.46875 L 9.21875 -2.015625 L 11.375 -8.484375 L 12.53125 -8.484375 L 9.65625 0 L 8.5625 0 L 6.328125 -6.953125 Z M 4.09375 0 "/></g></g></g><g fill="#000000" fill-opacity="1"><g transform="translate(233.706617, 260.184943)"><g><path d="M 4.5 0.171875 C 4.007812 0.171875 3.550781 0.09375 3.125 -0.0625 C 2.695312 -0.226562 2.320312 -0.460938 2 -0.765625 C 1.6875 -1.066406 1.441406 -1.429688 1.265625 -1.859375 C 1.085938 -2.285156 1 -2.757812 1 -3.28125 L 1 -8.5 L 2.09375 -8.5 L 2.09375 -3.375 C 2.09375 -3.03125 2.144531 -2.703125 2.25 -2.390625 C 2.351562 -2.085938 2.507812 -1.816406 2.71875 -1.578125 C 2.925781 -1.347656 3.175781 -1.164062 3.46875 -1.03125 C 3.769531 -0.90625 4.113281 -0.84375 4.5 -0.84375 C 4.882812 -0.84375 5.222656 -0.90625 5.515625 -1.03125 C 5.816406 -1.164062 6.070312 -1.347656 6.28125 -1.578125 C 6.488281 -1.804688 6.644531 -2.070312 6.75 -2.375 C 6.863281 -2.6875 6.921875 -3.015625 6.921875 -3.359375 L 6.921875 -8.5 L 8.015625 -8.5 L 8.015625 -3.28125 C 8.015625 -2.769531 7.925781 -2.300781 7.75 -1.875 C 7.582031 -1.457031 7.34375 -1.09375 7.03125 -0.78125 C 6.71875 -0.476562 6.347656 -0.242188 5.921875 -0.078125 C 5.492188 0.0859375 5.019531 0.171875 4.5 0.171875 Z M 4.5 0.171875 "/></g></g></g></svg>