<svg xmlns="http://www.w3.org/2000/svg" xmlns:xlink="http://www.w3.org/1999/xlink" width="500" zoomAndPan="magnify" viewBox="0 0 375 374.999991" height="500" preserveAspectRatio="xMidYMid meet" version="1.0"><defs><g/><clipPath id="ed9e0f98fc"><path d="M 62.84375 23.078125 L 311.84375 23.078125 L 311.84375 226.328125 L 62.84375 226.328125 Z M 62.84375 23.078125 " clip-rule="nonzero"/></clipPath><clipPath id="40570a2deb"><path d="M 146.160156 85 L 295.410156 85 L 295.410156 150.792969 L 146.160156 150.792969 Z M 146.160156 85 " clip-rule="nonzero"/></clipPath></defs><g clip-path="url(#ed9e0f98fc)"><path fill="#fab713" d="M 286.550781 181.214844 L 286.445312 226.515625 L 249.476562 184.683594 L 171.21875 184.683594 C 147.941406 184.683594 129.066406 165.808594 129.066406 142.527344 L 129.066406 93.476562 C 129.066406 70.199219 147.9375 51.324219 171.21875 51.324219 L 269.859375 51.324219 C 293.136719 51.324219 312.011719 70.199219 312.011719 93.476562 L 312.011719 142.527344 C 312.011719 159.878906 301.515625 174.746094 286.550781 181.214844 Z M 115.480469 93.355469 L 115.480469 128.480469 L 84.027344 163.625 L 83.96875 125.539062 C 71.550781 120.128906 62.84375 107.765625 62.84375 93.355469 L 62.84375 58.261719 C 62.84375 38.855469 78.5625 23.136719 97.976562 23.136719 L 181.421875 23.136719 C 192.855469 23.136719 202.921875 28.683594 209.332031 37.140625 L 171.6875 37.140625 C 140.640625 37.140625 115.480469 62.300781 115.480469 93.355469 Z M 115.480469 93.355469 " fill-opacity="1" fill-rule="evenodd"/></g><g clip-path="url(#40570a2deb)"><path fill="#000000" d="M 295.0625 117.84375 C 295.0625 118.015625 294.929688 118.167969 294.808594 118.289062 C 294.441406 118.640625 291.988281 119.070312 290.980469 119.1875 C 290.894531 119.195312 290.808594 119.210938 290.726562 119.226562 C 290.722656 119.222656 290.71875 119.226562 290.71875 119.226562 C 288.578125 119.542969 287.164062 120.632812 285.617188 122.828125 C 284.316406 124.578125 283.351562 126.546875 282.492188 128.542969 C 281.691406 130.375 281.011719 132.324219 279.648438 133.835938 C 278.589844 134.953125 277.085938 135.773438 275.542969 135.9375 C 273.1875 136.128906 270.789062 134.949219 269.328125 133.125 C 267.324219 130.925781 266.039062 125.371094 265.386719 123.933594 C 264.949219 122.882812 264.46875 121.835938 263.796875 120.914062 C 263.640625 120.734375 263.460938 120.574219 263.277344 120.417969 C 263.273438 120.414062 263.273438 120.410156 263.265625 120.40625 C 263.15625 120.328125 262.949219 120.214844 262.800781 120.144531 C 262.746094 120.128906 262.695312 120.113281 262.648438 120.105469 L 262.589844 120.105469 C 262.558594 120.121094 262.523438 120.140625 262.492188 120.160156 C 262.410156 120.242188 262.332031 120.328125 262.261719 120.417969 C 262.203125 120.503906 262.125 120.632812 262.066406 120.746094 C 261.289062 122.238281 261.011719 123.226562 260.921875 125.125 C 260.753906 128.273438 260.859375 131.433594 260.742188 134.589844 C 260.535156 139.726562 260.378906 146.191406 255.46875 149.175781 C 254.058594 149.945312 252.390625 149.886719 250.992188 149.132812 C 247.957031 147.625 246.433594 143.027344 245.527344 139.953125 C 244.65625 136.359375 243.902344 132.742188 242.902344 129.183594 C 241.933594 125.628906 240.925781 122.589844 239.179688 120.703125 C 238.527344 120.214844 238.292969 120.035156 236.917969 119.753906 C 236.710938 119.742188 236.449219 119.75 236.308594 119.75 C 235.550781 119.917969 235.964844 119.835938 235.015625 120.285156 C 234.222656 120.785156 234.773438 120.355469 234.074219 121.023438 C 234.054688 121.042969 234.042969 121.054688 234.03125 121.074219 C 233.972656 121.152344 233.921875 121.230469 233.875 121.316406 C 233.839844 121.386719 233.8125 121.4375 233.796875 121.476562 C 233.738281 121.609375 233.6875 121.742188 233.640625 121.878906 C 232.875 124.667969 232.589844 127.554688 232.0625 130.394531 C 231.722656 131.976562 231.472656 133.695312 230.457031 135.003906 C 229.390625 136.347656 227.625 137.175781 225.902344 137.050781 C 225.460938 137.015625 225.042969 136.886719 224.636719 136.710938 L 224.636719 136.707031 C 224.605469 136.691406 224.574219 136.679688 224.542969 136.667969 L 224.539062 136.667969 C 224.53125 136.664062 224.53125 136.660156 224.527344 136.660156 C 224.523438 136.660156 224.519531 136.65625 224.515625 136.65625 C 224.488281 136.644531 224.46875 136.632812 224.449219 136.628906 C 224.445312 136.625 224.441406 136.621094 224.4375 136.621094 C 224.425781 136.617188 224.421875 136.613281 224.421875 136.613281 L 224.417969 136.609375 C 223.472656 136.195312 222.625 135.550781 221.914062 134.816406 C 220.707031 133.480469 220.019531 131.796875 219.394531 130.132812 C 218.242188 127.207031 217.621094 123.550781 216.519531 121.550781 C 215.710938 120.167969 215.359375 119.792969 213.9375 119.394531 C 213.886719 119.394531 213.835938 119.390625 213.777344 119.398438 C 213.71875 119.394531 213.660156 119.398438 213.613281 119.398438 C 213.46875 119.429688 213.335938 119.46875 213.199219 119.519531 C 213.074219 119.585938 212.925781 119.683594 212.847656 119.730469 C 212.777344 119.792969 212.699219 119.855469 212.628906 119.917969 C 211.832031 120.835938 212.046875 120.359375 211.636719 121.703125 C 211.167969 123.734375 211.164062 124.230469 210.9375 126.246094 C 210.476562 130.496094 210.058594 134.757812 209.273438 138.964844 C 208.625 141.972656 207.941406 145.113281 206.25 147.722656 C 205.867188 148.285156 205.351562 148.726562 204.851562 149.175781 C 204.398438 149.5625 203.9375 149.96875 203.371094 150.179688 C 201.808594 150.910156 200.203125 150.175781 198.886719 149.277344 C 197.523438 148.304688 196.957031 146.605469 196.128906 145.210938 C 194.117188 141.105469 193.488281 136.503906 192.980469 132.007812 C 192.441406 127.914062 192.390625 124.300781 190.328125 121.226562 C 189.355469 119.792969 187.117188 119.015625 186.175781 119.445312 C 185.253906 120.019531 185.015625 120.570312 184.542969 122.484375 C 184.109375 124.613281 183.707031 126.753906 183.082031 128.835938 C 182.59375 130.359375 182.03125 131.917969 181.09375 133.226562 C 180.285156 134.222656 179.128906 135.003906 177.863281 135.277344 C 176.910156 135.507812 176.003906 134.96875 175.21875 134.484375 C 172.726562 132.808594 172.355469 129.484375 171.769531 126.765625 C 171.21875 123.625 170.039062 120.59375 169.054688 119.84375 C 168.359375 119.390625 168.714844 119.488281 168.023438 119.34375 C 167.984375 119.34375 167.929688 119.34375 167.875 119.347656 C 167.847656 119.359375 167.78125 119.375 167.707031 119.402344 C 167.679688 119.414062 167.628906 119.441406 167.5625 119.472656 C 166.722656 119.941406 166.582031 120.21875 166.121094 120.777344 C 165.355469 121.949219 164.792969 123.25 163.882812 124.320312 C 163.152344 125.230469 162.148438 125.894531 161.070312 126.3125 C 158.742188 127.464844 156.605469 125.421875 154.984375 123.957031 C 153.089844 122.027344 151.863281 120.707031 149.714844 119.628906 C 149.652344 119.601562 149.59375 119.574219 149.53125 119.546875 C 149.445312 119.515625 149.363281 119.484375 149.277344 119.449219 C 148.855469 119.300781 148.429688 119.171875 147.996094 119.058594 C 147.570312 118.910156 147.066406 118.921875 146.699219 118.644531 C 146.441406 118.472656 146.308594 118.148438 146.324219 117.84375 C 146.308594 117.539062 146.441406 117.214844 146.699219 117.042969 C 147.066406 116.769531 147.570312 116.777344 147.996094 116.628906 C 148.425781 116.515625 148.855469 116.386719 149.277344 116.238281 C 149.363281 116.203125 149.445312 116.171875 149.53125 116.140625 C 149.59375 116.113281 149.652344 116.085938 149.714844 116.058594 C 151.863281 114.980469 153.089844 113.660156 154.984375 111.730469 C 156.605469 110.265625 158.742188 108.222656 161.070312 109.375 C 162.148438 109.792969 163.152344 110.457031 163.882812 111.367188 C 164.792969 112.4375 165.355469 113.738281 166.121094 114.910156 C 166.582031 115.46875 166.722656 115.746094 167.5625 116.214844 C 167.628906 116.246094 167.679688 116.273438 167.707031 116.285156 C 167.78125 116.3125 167.847656 116.328125 167.875 116.339844 C 167.929688 116.34375 167.984375 116.34375 168.023438 116.34375 C 168.714844 116.199219 168.359375 116.296875 169.054688 115.84375 C 170.039062 115.09375 171.21875 112.0625 171.769531 108.921875 C 172.355469 106.207031 172.726562 102.878906 175.21875 101.203125 C 176.003906 100.71875 176.910156 100.183594 177.863281 100.410156 C 179.128906 100.683594 180.285156 101.460938 181.09375 102.460938 C 182.03125 103.769531 182.59375 105.328125 183.082031 106.851562 C 183.707031 108.933594 184.109375 111.074219 184.542969 113.203125 C 185.015625 115.121094 185.257812 115.667969 186.175781 116.242188 C 187.117188 116.671875 189.355469 115.894531 190.328125 114.460938 C 192.390625 111.386719 192.441406 107.769531 192.980469 103.679688 C 193.488281 99.183594 194.117188 94.582031 196.128906 90.476562 C 196.957031 89.082031 197.523438 87.386719 198.886719 86.410156 C 200.203125 85.511719 201.808594 84.78125 203.371094 85.507812 C 203.9375 85.722656 204.398438 86.125 204.851562 86.515625 C 205.351562 86.960938 205.867188 87.402344 206.25 87.964844 C 207.941406 90.574219 208.625 93.714844 209.273438 96.722656 C 210.058594 100.929688 210.476562 105.191406 210.9375 109.441406 C 211.164062 111.457031 211.167969 111.953125 211.636719 113.984375 C 212.046875 115.328125 211.832031 114.851562 212.628906 115.769531 C 212.699219 115.832031 212.777344 115.898438 212.847656 115.960938 C 212.925781 116.003906 213.074219 116.101562 213.199219 116.171875 C 213.335938 116.21875 213.46875 116.257812 213.613281 116.289062 C 213.660156 116.292969 213.71875 116.292969 213.777344 116.292969 C 213.835938 116.296875 213.886719 116.296875 213.9375 116.292969 C 215.359375 115.898438 215.710938 115.519531 216.519531 114.136719 C 217.621094 112.136719 218.242188 108.476562 219.394531 105.550781 C 220.019531 103.894531 220.707031 102.207031 221.914062 100.871094 C 222.625 100.136719 223.472656 99.492188 224.417969 99.078125 C 224.417969 99.078125 224.421875 99.074219 224.4375 99.070312 C 224.441406 99.070312 224.441406 99.066406 224.449219 99.0625 C 224.464844 99.054688 224.488281 99.046875 224.515625 99.03125 C 224.523438 99.027344 224.53125 99.027344 224.542969 99.023438 C 224.558594 99.015625 224.578125 99.007812 224.597656 99 C 224.613281 98.992188 224.625 98.988281 224.632812 98.984375 C 224.648438 98.976562 224.660156 98.96875 224.675781 98.964844 C 225.066406 98.792969 225.472656 98.671875 225.902344 98.640625 C 227.625 98.507812 229.390625 99.339844 230.457031 100.683594 C 231.46875 101.992188 231.722656 103.710938 232.0625 105.296875 C 232.589844 108.132812 232.871094 111.023438 233.640625 113.808594 C 233.6875 113.945312 233.738281 114.082031 233.792969 114.210938 C 233.8125 114.253906 233.835938 114.300781 233.875 114.375 C 233.917969 114.457031 233.972656 114.539062 234.027344 114.617188 C 234.042969 114.632812 234.054688 114.648438 234.070312 114.667969 C 234.773438 115.332031 234.222656 114.902344 235.011719 115.402344 C 235.964844 115.851562 235.550781 115.769531 236.304688 115.941406 C 236.449219 115.941406 236.707031 115.945312 236.914062 115.9375 C 238.292969 115.652344 238.527344 115.472656 239.175781 114.984375 C 240.925781 113.101562 241.933594 110.058594 242.898438 106.507812 C 243.902344 102.945312 244.65625 99.328125 245.527344 95.738281 C 246.429688 92.660156 247.957031 88.066406 250.992188 86.554688 C 252.390625 85.800781 254.058594 85.746094 255.464844 86.511719 C 260.378906 89.496094 260.53125 95.960938 260.738281 101.097656 C 260.859375 104.253906 260.753906 107.414062 260.921875 110.566406 C 261.011719 112.464844 261.289062 113.449219 262.066406 114.941406 C 262.125 115.054688 262.203125 115.183594 262.261719 115.273438 C 262.332031 115.359375 262.410156 115.445312 262.488281 115.527344 C 262.523438 115.546875 262.554688 115.5625 262.589844 115.585938 L 262.648438 115.585938 C 262.695312 115.574219 262.746094 115.5625 262.800781 115.546875 C 262.949219 115.472656 263.15625 115.359375 263.265625 115.28125 C 263.269531 115.277344 263.273438 115.273438 263.277344 115.273438 C 263.460938 115.117188 263.640625 114.953125 263.796875 114.773438 C 264.46875 113.851562 264.945312 112.808594 265.386719 111.757812 C 266.039062 110.316406 267.324219 104.761719 269.328125 102.5625 C 270.789062 100.742188 273.1875 99.558594 275.542969 99.75 C 277.085938 99.917969 278.589844 100.734375 279.648438 101.851562 C 281.011719 103.363281 281.691406 105.3125 282.488281 107.144531 C 283.347656 109.144531 284.316406 111.113281 285.617188 112.863281 C 287.160156 115.050781 288.570312 116.136719 290.703125 116.464844 C 290.792969 116.480469 290.882812 116.492188 290.980469 116.503906 C 291.789062 116.585938 294.496094 117.085938 294.808594 117.402344 C 294.929688 117.515625 295.0625 117.667969 295.0625 117.84375 Z M 295.0625 117.84375 " fill-opacity="1" fill-rule="nonzero"/></g><g fill="#ffffff" fill-opacity="1"><g transform="translate(8.343186, 293.588222)"><g><path d="M 20.546875 13.75 L 3.078125 13.75 L 3.078125 -40.3125 L 18.78125 -40.3125 L 19.4375 -36.9375 C 21.019531 -38.675781 22.765625 -39.894531 24.671875 -40.59375 C 26.578125 -41.300781 28.453125 -41.65625 30.296875 -41.65625 C 33.003906 -41.65625 35.515625 -41.128906 37.828125 -40.078125 C 40.148438 -39.035156 42.179688 -37.5625 43.921875 -35.65625 C 45.671875 -33.75 47.03125 -31.472656 48 -28.828125 C 48.96875 -26.191406 49.453125 -23.289062 49.453125 -20.125 C 49.453125 -17.019531 48.976562 -14.15625 48.03125 -11.53125 C 47.082031 -8.914062 45.75 -6.640625 44.03125 -4.703125 C 42.320312 -2.773438 40.316406 -1.269531 38.015625 -0.1875 C 35.710938 0.882812 33.191406 1.421875 30.453125 1.421875 C 28.484375 1.421875 26.617188 1.046875 24.859375 0.296875 C 23.109375 -0.441406 21.59375 -1.398438 20.3125 -2.578125 L 20.546875 1.078125 Z M 26.34375 -13.515625 C 27.414062 -13.515625 28.398438 -13.753906 29.296875 -14.234375 C 30.191406 -14.722656 30.90625 -15.460938 31.4375 -16.453125 C 31.976562 -17.441406 32.25 -18.675781 32.25 -20.15625 C 32.25 -22.3125 31.671875 -23.941406 30.515625 -25.046875 C 29.367188 -26.160156 27.960938 -26.71875 26.296875 -26.71875 C 25.203125 -26.71875 24.207031 -26.429688 23.3125 -25.859375 C 22.414062 -25.285156 21.707031 -24.503906 21.1875 -23.515625 C 20.675781 -22.535156 20.421875 -21.414062 20.421875 -20.15625 C 20.421875 -18.800781 20.691406 -17.625 21.234375 -16.625 C 21.773438 -15.625 22.5 -14.851562 23.40625 -14.3125 C 24.3125 -13.78125 25.289062 -13.515625 26.34375 -13.515625 Z M 26.34375 -13.515625 "/></g></g></g><g fill="#ffffff" fill-opacity="1"><g transform="translate(59.330153, 293.588222)"><g><path d="M 24.53125 1.421875 C 21.132812 1.421875 18.019531 0.890625 15.1875 -0.171875 C 12.351562 -1.234375 9.921875 -2.722656 7.890625 -4.640625 C 5.859375 -6.566406 4.285156 -8.835938 3.171875 -11.453125 C 2.054688 -14.078125 1.5 -16.96875 1.5 -20.125 C 1.5 -23.269531 2.054688 -26.15625 3.171875 -28.78125 C 4.285156 -31.40625 5.859375 -33.679688 7.890625 -35.609375 C 9.921875 -37.546875 12.34375 -39.046875 15.15625 -40.109375 C 17.976562 -41.171875 21.09375 -41.703125 24.5 -41.703125 C 27.976562 -41.703125 31.144531 -41.171875 34 -40.109375 C 36.851562 -39.046875 39.3125 -37.550781 41.375 -35.625 C 43.4375 -33.707031 45.023438 -31.429688 46.140625 -28.796875 C 47.253906 -26.160156 47.8125 -23.269531 47.8125 -20.125 C 47.8125 -16.96875 47.253906 -14.070312 46.140625 -11.4375 C 45.023438 -8.800781 43.441406 -6.523438 41.390625 -4.609375 C 39.347656 -2.691406 36.898438 -1.207031 34.046875 -0.15625 C 31.191406 0.894531 28.019531 1.421875 24.53125 1.421875 Z M 24.6875 -13.59375 C 26.457031 -13.59375 27.878906 -14.1875 28.953125 -15.375 C 30.023438 -16.570312 30.5625 -18.164062 30.5625 -20.15625 C 30.5625 -22.125 30.023438 -23.703125 28.953125 -24.890625 C 27.878906 -26.085938 26.457031 -26.6875 24.6875 -26.6875 C 22.894531 -26.6875 21.453125 -26.085938 20.359375 -24.890625 C 19.273438 -23.703125 18.734375 -22.125 18.734375 -20.15625 C 18.734375 -18.164062 19.273438 -16.570312 20.359375 -15.375 C 21.453125 -14.1875 22.894531 -13.59375 24.6875 -13.59375 Z M 24.6875 -13.59375 "/></g></g></g><g fill="#ffffff" fill-opacity="1"><g transform="translate(108.666187, 293.588222)"><g><path d="M 20.546875 1.421875 C 17.859375 1.421875 15.351562 0.894531 13.03125 -0.15625 C 10.71875 -1.207031 8.695312 -2.6875 6.96875 -4.59375 C 5.238281 -6.5 3.894531 -8.769531 2.9375 -11.40625 C 1.976562 -14.039062 1.5 -16.945312 1.5 -20.125 C 1.5 -23.21875 1.957031 -26.078125 2.875 -28.703125 C 3.800781 -31.328125 5.109375 -33.609375 6.796875 -35.546875 C 8.484375 -37.492188 10.5 -39.003906 12.84375 -40.078125 C 15.1875 -41.160156 17.78125 -41.703125 20.625 -41.703125 C 22.03125 -41.703125 23.359375 -41.503906 24.609375 -41.109375 C 25.867188 -40.710938 27.015625 -40.210938 28.046875 -39.609375 C 29.085938 -39.003906 29.96875 -38.367188 30.6875 -37.703125 L 30.453125 -41.515625 L 30.453125 -54.140625 L 47.890625 -54.140625 L 47.890625 0 L 32.140625 0 L 31.53125 -3.34375 C 30.6875 -2.519531 29.722656 -1.742188 28.640625 -1.015625 C 27.566406 -0.285156 26.363281 0.300781 25.03125 0.75 C 23.707031 1.195312 22.210938 1.421875 20.546875 1.421875 Z M 24.609375 -13.515625 C 25.765625 -13.515625 26.78125 -13.800781 27.65625 -14.375 C 28.539062 -14.957031 29.238281 -15.742188 29.75 -16.734375 C 30.269531 -17.734375 30.53125 -18.875 30.53125 -20.15625 C 30.53125 -21.414062 30.28125 -22.535156 29.78125 -23.515625 C 29.28125 -24.503906 28.582031 -25.285156 27.6875 -25.859375 C 26.789062 -26.429688 25.765625 -26.71875 24.609375 -26.71875 C 22.867188 -26.71875 21.445312 -26.128906 20.34375 -24.953125 C 19.25 -23.773438 18.703125 -22.175781 18.703125 -20.15625 C 18.703125 -18.238281 19.21875 -16.648438 20.25 -15.390625 C 21.289062 -14.140625 22.742188 -13.515625 24.609375 -13.515625 Z M 24.609375 -13.515625 "/></g></g></g><g fill="#ffffff" fill-opacity="1"><g transform="translate(159.61476, 293.588222)"><g><path d="M 24.1875 1.421875 C 20.550781 1.421875 17.328125 0.851562 14.515625 -0.28125 C 11.703125 -1.425781 9.328125 -2.988281 7.390625 -4.96875 C 5.460938 -6.957031 4 -9.25 3 -11.84375 C 2 -14.445312 1.5 -17.207031 1.5 -20.125 C 1.5 -23.039062 2 -25.796875 3 -28.390625 C 4 -30.992188 5.460938 -33.289062 7.390625 -35.28125 C 9.328125 -37.28125 11.703125 -38.847656 14.515625 -39.984375 C 17.328125 -41.128906 20.550781 -41.703125 24.1875 -41.703125 C 27.644531 -41.703125 30.703125 -41.226562 33.359375 -40.28125 C 36.023438 -39.332031 38.289062 -38.015625 40.15625 -36.328125 C 42.03125 -34.640625 43.53125 -32.679688 44.65625 -30.453125 C 45.78125 -28.222656 46.550781 -25.816406 46.96875 -23.234375 L 29.609375 -23.234375 C 29.171875 -24.429688 28.503906 -25.304688 27.609375 -25.859375 C 26.710938 -26.410156 25.640625 -26.6875 24.390625 -26.6875 C 23.410156 -26.6875 22.484375 -26.4375 21.609375 -25.9375 C 20.742188 -25.4375 20.046875 -24.707031 19.515625 -23.75 C 18.992188 -22.789062 18.734375 -21.609375 18.734375 -20.203125 C 18.734375 -18.742188 18.992188 -17.519531 19.515625 -16.53125 C 20.046875 -15.539062 20.738281 -14.796875 21.59375 -14.296875 C 22.457031 -13.804688 23.390625 -13.5625 24.390625 -13.5625 C 25.566406 -13.5625 26.625 -13.851562 27.5625 -14.4375 C 28.507812 -15.03125 29.191406 -16.082031 29.609375 -17.59375 L 46.96875 -17.59375 C 46.632812 -14.945312 45.910156 -12.472656 44.796875 -10.171875 C 43.679688 -7.867188 42.175781 -5.847656 40.28125 -4.109375 C 38.382812 -2.367188 36.097656 -1.007812 33.421875 -0.03125 C 30.742188 0.9375 27.664062 1.421875 24.1875 1.421875 Z M 24.1875 1.421875 "/></g></g></g><g fill="#ffffff" fill-opacity="1"><g transform="translate(207.722192, 293.588222)"><g><path d="M 57.015625 0 L 38.28125 0 L 36.515625 -5.953125 L 20.46875 -5.953125 L 18.703125 0 L -0.078125 0 L 18.046875 -52.265625 L 38.890625 -52.265625 Z M 28 -31.328125 L 24.390625 -19.125 L 32.59375 -19.125 L 28.953125 -31.328125 L 28.609375 -33.4375 L 28.34375 -33.4375 Z M 28 -31.328125 "/></g></g></g><g fill="#ffffff" fill-opacity="1"><g transform="translate(264.660198, 293.588222)"><g><path d="M 22.3125 0 L 3.953125 0 L 3.953125 -52.21875 L 22.3125 -52.21875 Z M 22.3125 0 "/></g></g></g><g fill="#ffffff" fill-opacity="1"><g transform="translate(290.921557, 293.588222)"><g><path d="M 20.921875 1.421875 C 17.316406 1.421875 14.285156 1 11.828125 0.15625 C 9.367188 -0.6875 7.394531 -1.8125 5.90625 -3.21875 C 4.425781 -4.632812 3.351562 -6.21875 2.6875 -7.96875 C 2.019531 -9.71875 1.6875 -11.515625 1.6875 -13.359375 L 17.046875 -13.328125 C 17.128906 -12.453125 17.460938 -11.726562 18.046875 -11.15625 C 18.640625 -10.582031 19.597656 -10.296875 20.921875 -10.296875 C 22.128906 -10.296875 22.957031 -10.476562 23.40625 -10.84375 C 23.851562 -11.21875 24.078125 -11.6875 24.078125 -12.25 C 24.078125 -12.707031 23.894531 -13.078125 23.53125 -13.359375 C 23.175781 -13.640625 22.554688 -13.875 21.671875 -14.0625 C 20.785156 -14.257812 19.539062 -14.421875 17.9375 -14.546875 C 14.8125 -14.828125 12.085938 -15.4375 9.765625 -16.375 C 7.453125 -17.3125 5.660156 -18.6875 4.390625 -20.5 C 3.128906 -22.320312 2.5 -24.664062 2.5 -27.53125 C 2.5 -30.757812 3.269531 -33.414062 4.8125 -35.5 C 6.363281 -37.582031 8.523438 -39.132812 11.296875 -40.15625 C 14.078125 -41.1875 17.328125 -41.703125 21.046875 -41.703125 C 23.648438 -41.703125 26.066406 -41.375 28.296875 -40.71875 C 30.523438 -40.070312 32.460938 -39.125 34.109375 -37.875 C 35.765625 -36.632812 37.050781 -35.125 37.96875 -33.34375 C 38.894531 -31.570312 39.359375 -29.554688 39.359375 -27.296875 L 24.078125 -27.375 C 24.023438 -28.019531 23.753906 -28.578125 23.265625 -29.046875 C 22.785156 -29.523438 21.992188 -29.765625 20.890625 -29.765625 C 19.992188 -29.765625 19.351562 -29.609375 18.96875 -29.296875 C 18.582031 -28.992188 18.390625 -28.609375 18.390625 -28.140625 C 18.390625 -27.785156 18.457031 -27.492188 18.59375 -27.265625 C 18.738281 -27.035156 19.046875 -26.828125 19.515625 -26.640625 C 19.992188 -26.460938 20.707031 -26.300781 21.65625 -26.15625 C 22.601562 -26.019531 23.882812 -25.878906 25.5 -25.734375 C 28.820312 -25.398438 31.585938 -24.773438 33.796875 -23.859375 C 36.015625 -22.953125 37.675781 -21.632812 38.78125 -19.90625 C 39.882812 -18.175781 40.4375 -15.894531 40.4375 -13.0625 C 40.4375 -10.414062 39.90625 -8.171875 38.84375 -6.328125 C 37.78125 -4.492188 36.335938 -3.003906 34.515625 -1.859375 C 32.703125 -0.722656 30.625 0.101562 28.28125 0.625 C 25.9375 1.15625 23.484375 1.421875 20.921875 1.421875 Z M 20.921875 1.421875 "/></g></g></g><g fill="#ffffff" fill-opacity="1"><g transform="translate(332.425255, 293.588222)"><g><path d="M 32.5625 0 L 22.609375 0 C 21.179688 0 19.703125 -0.0859375 18.171875 -0.265625 C 16.648438 -0.441406 15.1875 -0.820312 13.78125 -1.40625 C 12.375 -2 11.109375 -2.882812 9.984375 -4.0625 C 8.859375 -5.25 7.960938 -6.828125 7.296875 -8.796875 C 6.628906 -10.765625 6.296875 -13.234375 6.296875 -16.203125 L 6.296875 -26.796875 L 0.265625 -26.796875 L 0.265625 -40.3125 L 6.796875 -40.3125 L 8.953125 -51.34375 L 23.765625 -51.421875 L 23.765625 -40.3125 L 32.5625 -40.3125 L 32.5625 -26.796875 L 23.765625 -26.796875 L 23.765625 -16.859375 C 23.765625 -15.753906 24.03125 -14.878906 24.5625 -14.234375 C 25.101562 -13.597656 25.875 -13.28125 26.875 -13.28125 L 32.5625 -13.28125 Z M 32.5625 0 "/></g></g></g><g fill="#ffffff" fill-opacity="1"><g transform="translate(69.483464, 343.449311)"><g><path d="M 10.96875 0 L 2.46875 0 L 2.46875 -18.140625 L 10.21875 -18.140625 C 11.21875 -18.140625 12.109375 -17.9375 12.890625 -17.53125 C 13.671875 -17.132812 14.28125 -16.578125 14.71875 -15.859375 C 15.164062 -15.148438 15.390625 -14.316406 15.390625 -13.359375 C 15.390625 -12.804688 15.28125 -12.28125 15.0625 -11.78125 C 14.851562 -11.28125 14.566406 -10.835938 14.203125 -10.453125 C 13.847656 -10.066406 13.441406 -9.78125 12.984375 -9.59375 C 13.628906 -9.40625 14.210938 -9.09375 14.734375 -8.65625 C 15.253906 -8.21875 15.664062 -7.695312 15.96875 -7.09375 C 16.28125 -6.488281 16.4375 -5.832031 16.4375 -5.125 C 16.4375 -4.300781 16.285156 -3.570312 15.984375 -2.9375 C 15.679688 -2.300781 15.273438 -1.765625 14.765625 -1.328125 C 14.253906 -0.898438 13.671875 -0.570312 13.015625 -0.34375 C 12.367188 -0.113281 11.6875 0 10.96875 0 Z M 4.859375 -16.078125 L 4.859375 -10.265625 L 10.109375 -10.265625 C 10.648438 -10.265625 11.140625 -10.394531 11.578125 -10.65625 C 12.015625 -10.914062 12.359375 -11.265625 12.609375 -11.703125 C 12.867188 -12.148438 13 -12.644531 13 -13.1875 C 13 -13.726562 12.867188 -14.21875 12.609375 -14.65625 C 12.359375 -15.09375 12.015625 -15.4375 11.578125 -15.6875 C 11.140625 -15.945312 10.65625 -16.078125 10.125 -16.078125 Z M 4.859375 -8.4375 L 4.859375 -2.078125 L 10.78125 -2.078125 C 11.394531 -2.078125 11.941406 -2.21875 12.421875 -2.5 C 12.910156 -2.78125 13.296875 -3.160156 13.578125 -3.640625 C 13.867188 -4.128906 14.015625 -4.679688 14.015625 -5.296875 C 14.015625 -5.867188 13.867188 -6.394531 13.578125 -6.875 C 13.296875 -7.351562 12.914062 -7.734375 12.4375 -8.015625 C 11.957031 -8.296875 11.414062 -8.4375 10.8125 -8.4375 Z M 4.859375 -8.4375 "/></g></g></g><g fill="#ffffff" fill-opacity="1"><g transform="translate(92.757586, 343.449311)"><g><path d="M 9.96875 0 L 7.609375 0 L 7.609375 -6.953125 L 0.265625 -18.140625 L 3.046875 -18.140625 L 8.78125 -9.0625 L 14.484375 -18.140625 L 17.28125 -18.140625 L 9.953125 -6.96875 Z M 9.96875 0 "/></g></g></g><g fill="#ffffff" fill-opacity="1"><g transform="translate(116.085045, 343.449311)"><g/></g></g><g fill="#ffffff" fill-opacity="1"><g transform="translate(128.59827, 343.449311)"><g><path d="M 9.140625 0 L 2.46875 0 L 2.46875 -18.140625 L 9.09375 -18.140625 C 10.53125 -18.140625 11.832031 -17.921875 13 -17.484375 C 14.175781 -17.054688 15.1875 -16.441406 16.03125 -15.640625 C 16.875 -14.835938 17.519531 -13.882812 17.96875 -12.78125 C 18.425781 -11.675781 18.65625 -10.441406 18.65625 -9.078125 C 18.65625 -7.722656 18.425781 -6.484375 17.96875 -5.359375 C 17.519531 -4.242188 16.875 -3.285156 16.03125 -2.484375 C 15.195312 -1.691406 14.195312 -1.078125 13.03125 -0.640625 C 11.863281 -0.210938 10.566406 0 9.140625 0 Z M 4.78125 -16.03125 L 4.78125 -2.140625 L 9.078125 -2.140625 C 10.566406 -2.140625 11.84375 -2.421875 12.90625 -2.984375 C 13.976562 -3.546875 14.804688 -4.34375 15.390625 -5.375 C 15.972656 -6.414062 16.265625 -7.632812 16.265625 -9.03125 C 16.265625 -10.4375 15.972656 -11.660156 15.390625 -12.703125 C 14.804688 -13.753906 13.972656 -14.570312 12.890625 -15.15625 C 11.816406 -15.738281 10.53125 -16.03125 9.03125 -16.03125 Z M 4.78125 -16.03125 "/></g></g></g><g fill="#ffffff" fill-opacity="1"><g transform="translate(154.112577, 343.449311)"><g><path d="M 4.828125 0 L 2.46875 0 L 2.46875 -18.140625 L 4.828125 -18.140625 Z M 4.828125 0 "/></g></g></g><g fill="#ffffff" fill-opacity="1"><g transform="translate(167.172529, 343.449311)"><g><path d="M 17.796875 0 L 15.28125 0 L 13.5625 -4.109375 L 4.40625 -4.109375 L 2.6875 0 L 0.171875 0 L 7.859375 -18.140625 L 10.125 -18.140625 Z M 8.890625 -14.8125 L 5.234375 -6.109375 L 12.71875 -6.109375 L 9.0625 -14.8125 L 9 -15.125 L 8.96875 -15.125 Z M 8.890625 -14.8125 "/></g></g></g><g fill="#ffffff" fill-opacity="1"><g transform="translate(190.900017, 343.449311)"><g><path d="M 15.640625 -3.921875 L 15.640625 -18.140625 L 17.984375 -18.140625 L 17.984375 0 L 15.984375 0 L 4.828125 -14.171875 L 4.828125 0 L 2.46875 0 L 2.46875 -18.140625 L 4.453125 -18.140625 L 15.625 -3.921875 Z M 15.640625 -3.921875 "/></g></g></g><g fill="#ffffff" fill-opacity="1"><g transform="translate(217.121036, 343.449311)"><g><path d="M 17.796875 0 L 15.28125 0 L 13.5625 -4.109375 L 4.40625 -4.109375 L 2.6875 0 L 0.171875 0 L 7.859375 -18.140625 L 10.125 -18.140625 Z M 8.890625 -14.8125 L 5.234375 -6.109375 L 12.71875 -6.109375 L 9.0625 -14.8125 L 9 -15.125 L 8.96875 -15.125 Z M 8.890625 -14.8125 "/></g></g></g><g fill="#ffffff" fill-opacity="1"><g transform="translate(240.84853, 343.449311)"><g/></g></g><g fill="#ffffff" fill-opacity="1"><g transform="translate(253.361758, 343.449311)"><g><path d="M 8.75 0 L 6.4375 0 L 0.265625 -18.140625 L 2.78125 -18.140625 L 7.390625 -4.21875 L 7.65625 -3.140625 L 7.703125 -3.140625 L 7.921875 -4.234375 L 12.28125 -18.140625 L 14.78125 -18.140625 L 19.140625 -4.25 L 19.375 -3.140625 L 19.421875 -3.140625 L 19.703125 -4.328125 L 24.296875 -18.140625 L 26.796875 -18.140625 L 20.625 0 L 18.3125 0 L 13.53125 -14.875 Z M 8.75 0 "/></g></g></g><g fill="#ffffff" fill-opacity="1"><g transform="translate(286.196665, 343.449311)"><g><path d="M 9.625 0.375 C 8.570312 0.375 7.585938 0.203125 6.671875 -0.140625 C 5.765625 -0.492188 4.96875 -0.992188 4.28125 -1.640625 C 3.601562 -2.285156 3.070312 -3.0625 2.6875 -3.96875 C 2.3125 -4.882812 2.125 -5.90625 2.125 -7.03125 L 2.125 -18.15625 L 4.46875 -18.15625 L 4.46875 -7.203125 C 4.46875 -6.460938 4.578125 -5.765625 4.796875 -5.109375 C 5.023438 -4.460938 5.359375 -3.890625 5.796875 -3.390625 C 6.242188 -2.898438 6.785156 -2.515625 7.421875 -2.234375 C 8.066406 -1.953125 8.800781 -1.8125 9.625 -1.8125 C 10.4375 -1.8125 11.160156 -1.945312 11.796875 -2.21875 C 12.429688 -2.5 12.96875 -2.882812 13.40625 -3.375 C 13.851562 -3.875 14.191406 -4.445312 14.421875 -5.09375 C 14.660156 -5.738281 14.78125 -6.429688 14.78125 -7.171875 L 14.78125 -18.15625 L 17.140625 -18.15625 L 17.140625 -7.03125 C 17.140625 -5.9375 16.953125 -4.9375 16.578125 -4.03125 C 16.210938 -3.125 15.691406 -2.34375 15.015625 -1.6875 C 14.347656 -1.03125 13.554688 -0.519531 12.640625 -0.15625 C 11.722656 0.195312 10.71875 0.375 9.625 0.375 Z M 9.625 0.375 "/></g></g></g></svg>